<svg width="17" height="12" viewBox="0 0 17 12" fill="none" xmlns="http://www.w3.org/2000/svg">
<path d="M5.83226 0.910656C6.23066 0.512263 6.87831 0.517943 7.26965 0.923264C7.65141 1.31865 7.64589 1.94702 7.25726 2.33566L4.51315 5.07977C4.47412 5.1188 4.50176 5.18555 4.55697 5.18555L15.5574 5.18555C16.1097 5.18555 16.5574 5.63326 16.5574 6.18555C16.5574 6.73783 16.1097 7.18555 15.5574 7.18555L4.55697 7.18555C4.50176 7.18555 4.47412 7.25229 4.51315 7.29132L7.25726 10.0354C7.64589 10.4241 7.65141 11.0524 7.26965 11.4478C6.87831 11.8531 6.23066 11.8588 5.83226 11.4604L1.21372 6.84189C0.851227 6.4794 0.851227 5.89169 1.21372 5.5292L5.83226 0.910656Z" fill="#003F87"/>
</svg>
