<svg width="1920" height="1080" viewBox="0 0 1920 1080" fill="none" xmlns="http://www.w3.org/2000/svg">
<g opacity="0.02" clip-path="url(#clip0_2_3576)">
<path fill-rule="evenodd" clip-rule="evenodd" d="M469.937 960.535L392.17 960.535L469.938 882.768L469.937 960.535Z" fill="#003F87"/>
<path d="M388.195 883.268L311.223 883.268C311.223 910.851 325.795 935.031 347.683 948.568C348.293 948.95 348.902 949.313 349.522 949.666C360.318 955.944 372.787 959.672 386.11 960.025L386.149 960.025C386.828 960.035 387.516 960.044 388.195 960.044L388.195 883.258L388.195 883.268Z" fill="#01AE9D"/>
<circle cx="36.2492" cy="36.2492" r="36.2492" transform="matrix(-1 -8.74228e-08 -8.74228e-08 1 307.247 885.402)" fill="#FCC400"/>
<path fill-rule="evenodd" clip-rule="evenodd" d="M226.797 960.535L149.03 960.535L226.797 882.768L226.797 960.535Z" fill="#003F87"/>
<path d="M145.054 883.268L68.0823 883.268C68.0823 910.851 82.6547 935.031 104.543 948.568C105.152 948.95 105.762 949.313 106.381 949.666C117.178 955.944 129.646 959.672 142.97 960.025L143.009 960.025C143.687 960.035 144.376 960.044 145.054 960.044L145.054 883.258L145.054 883.268Z" fill="#01AE9D"/>
<circle cx="36.2492" cy="36.2492" r="36.2492" transform="matrix(-1 -8.74228e-08 -8.74228e-08 1 64.1066 885.402)" fill="#FCC400"/>
<path d="M-12.3671 805.498L64.6048 805.498C64.6048 833.082 50.0324 857.261 28.1444 870.798C27.5348 871.181 26.9251 871.544 26.3057 871.897C15.5091 878.175 3.04102 881.902 -10.2826 882.255L-10.3219 882.255C-11.0004 882.265 -11.6887 882.275 -12.3671 882.275L-12.3671 805.488L-12.3671 805.498Z" fill="#003F87"/>
<path fill-rule="evenodd" clip-rule="evenodd" d="M68.5805 882.765L146.348 882.765L68.5805 804.998L68.5805 882.765Z" fill="#FCC400"/>
<circle cx="186.572" cy="843.882" r="36.2492" fill="#01AE9D"/>
<path d="M230.773 805.498L307.745 805.498C307.745 833.082 293.173 857.261 271.285 870.798C270.675 871.181 270.066 871.544 269.446 871.897C258.65 878.175 246.182 881.902 232.858 882.255L232.819 882.255C232.14 882.265 231.452 882.275 230.773 882.275L230.773 805.488L230.773 805.498Z" fill="#003F87"/>
<path fill-rule="evenodd" clip-rule="evenodd" d="M311.721 882.765L389.488 882.765L311.721 804.998L311.721 882.765Z" fill="#FCC400"/>
<circle cx="429.713" cy="843.882" r="36.2492" fill="#01AE9D"/>
</g>
<g opacity="0.02" clip-path="url(#clip1_2_3576)">
<path fill-rule="evenodd" clip-rule="evenodd" d="M469.937 686.535L392.17 686.535L469.938 608.768L469.937 686.535Z" fill="#003F87"/>
<path d="M388.195 609.268L311.223 609.268C311.223 636.851 325.795 661.031 347.683 674.568C348.293 674.95 348.902 675.313 349.522 675.666C360.318 681.944 372.787 685.672 386.11 686.025L386.149 686.025C386.828 686.035 387.516 686.044 388.195 686.044L388.195 609.258L388.195 609.268Z" fill="#01AE9D"/>
<circle cx="36.2492" cy="36.2492" r="36.2492" transform="matrix(-1 -8.74228e-08 -8.74228e-08 1 307.247 611.402)" fill="#FCC400"/>
<path fill-rule="evenodd" clip-rule="evenodd" d="M226.797 686.535L149.03 686.535L226.797 608.768L226.797 686.535Z" fill="#003F87"/>
<path d="M145.054 609.268L68.0823 609.268C68.0823 636.851 82.6547 661.031 104.543 674.568C105.152 674.95 105.762 675.313 106.381 675.666C117.178 681.944 129.646 685.672 142.97 686.025L143.009 686.025C143.687 686.035 144.376 686.044 145.054 686.044L145.054 609.258L145.054 609.268Z" fill="#01AE9D"/>
<circle cx="36.2492" cy="36.2492" r="36.2492" transform="matrix(-1 -8.74228e-08 -8.74228e-08 1 64.1066 611.402)" fill="#FCC400"/>
<path d="M-12.3671 531.498L64.6048 531.498C64.6048 559.082 50.0324 583.261 28.1444 596.798C27.5348 597.181 26.9251 597.544 26.3057 597.897C15.5091 604.175 3.04102 607.902 -10.2826 608.255L-10.3219 608.255C-11.0004 608.265 -11.6887 608.275 -12.3671 608.275L-12.3671 531.488L-12.3671 531.498Z" fill="#003F87"/>
<path fill-rule="evenodd" clip-rule="evenodd" d="M68.5805 608.765L146.348 608.765L68.5805 530.998L68.5805 608.765Z" fill="#FCC400"/>
<circle cx="186.572" cy="569.882" r="36.2492" fill="#01AE9D"/>
<path d="M230.773 531.498L307.745 531.498C307.745 559.082 293.173 583.261 271.285 596.798C270.675 597.181 270.066 597.544 269.446 597.897C258.65 604.175 246.182 607.902 232.858 608.255L232.819 608.255C232.14 608.265 231.452 608.275 230.773 608.275L230.773 531.488L230.773 531.498Z" fill="#003F87"/>
<path fill-rule="evenodd" clip-rule="evenodd" d="M311.721 608.765L389.488 608.765L311.721 530.998L311.721 608.765Z" fill="#FCC400"/>
<circle cx="429.713" cy="569.882" r="36.2492" fill="#01AE9D"/>
</g>
<g opacity="0.02" clip-path="url(#clip2_2_3576)">
<path fill-rule="evenodd" clip-rule="evenodd" d="M469.937 412.535L392.17 412.535L469.938 334.768L469.937 412.535Z" fill="#003F87"/>
<path d="M388.195 335.268L311.223 335.268C311.223 362.851 325.795 387.031 347.683 400.568C348.293 400.95 348.902 401.313 349.522 401.666C360.318 407.944 372.787 411.672 386.11 412.025L386.149 412.025C386.828 412.035 387.516 412.044 388.195 412.044L388.195 335.258L388.195 335.268Z" fill="#01AE9D"/>
<circle cx="36.2492" cy="36.2492" r="36.2492" transform="matrix(-1 -8.74228e-08 -8.74228e-08 1 307.247 337.402)" fill="#FCC400"/>
<path fill-rule="evenodd" clip-rule="evenodd" d="M226.797 412.535L149.03 412.535L226.797 334.768L226.797 412.535Z" fill="#003F87"/>
<path d="M145.054 335.268L68.0823 335.268C68.0823 362.851 82.6547 387.031 104.543 400.568C105.152 400.95 105.762 401.313 106.381 401.666C117.178 407.944 129.646 411.672 142.97 412.025L143.009 412.025C143.687 412.035 144.376 412.044 145.054 412.044L145.054 335.258L145.054 335.268Z" fill="#01AE9D"/>
<circle cx="36.2492" cy="36.2492" r="36.2492" transform="matrix(-1 -8.74228e-08 -8.74228e-08 1 64.1066 337.402)" fill="#FCC400"/>
<path d="M-12.3671 257.498L64.6048 257.498C64.6048 285.082 50.0324 309.261 28.1444 322.798C27.5348 323.181 26.9251 323.544 26.3057 323.897C15.5091 330.175 3.04102 333.902 -10.2826 334.255L-10.3219 334.255C-11.0004 334.265 -11.6887 334.275 -12.3671 334.275L-12.3671 257.488L-12.3671 257.498Z" fill="#003F87"/>
<path fill-rule="evenodd" clip-rule="evenodd" d="M68.5805 334.765L146.348 334.765L68.5805 256.998L68.5805 334.765Z" fill="#FCC400"/>
<circle cx="186.572" cy="295.882" r="36.2492" fill="#01AE9D"/>
<path d="M230.773 257.498L307.745 257.498C307.745 285.082 293.173 309.261 271.285 322.798C270.675 323.181 270.066 323.544 269.446 323.897C258.65 330.175 246.182 333.902 232.858 334.255L232.819 334.255C232.14 334.265 231.452 334.275 230.773 334.275L230.773 257.488L230.773 257.498Z" fill="#003F87"/>
<path fill-rule="evenodd" clip-rule="evenodd" d="M311.721 334.765L389.488 334.765L311.721 256.998L311.721 334.765Z" fill="#FCC400"/>
<circle cx="429.713" cy="295.882" r="36.2492" fill="#01AE9D"/>
</g>
<g opacity="0.02" clip-path="url(#clip3_2_3576)">
<path fill-rule="evenodd" clip-rule="evenodd" d="M469.937 138.535L392.17 138.535L469.938 60.7676L469.937 138.535Z" fill="#003F87"/>
<path d="M388.195 61.2676L311.223 61.2676C311.223 88.8511 325.795 113.031 347.683 126.568C348.293 126.95 348.902 127.313 349.522 127.666C360.318 133.944 372.787 137.672 386.11 138.025L386.149 138.025C386.828 138.035 387.516 138.044 388.195 138.044L388.195 61.2578L388.195 61.2676Z" fill="#01AE9D"/>
<circle cx="36.2492" cy="36.2492" r="36.2492" transform="matrix(-1 -8.74228e-08 -8.74228e-08 1 307.247 63.4023)" fill="#FCC400"/>
<path fill-rule="evenodd" clip-rule="evenodd" d="M226.797 138.535L149.03 138.535L226.797 60.7676L226.797 138.535Z" fill="#003F87"/>
<path d="M145.054 61.2676L68.0823 61.2676C68.0823 88.8511 82.6547 113.031 104.543 126.568C105.152 126.95 105.762 127.313 106.381 127.666C117.178 133.944 129.646 137.672 142.97 138.025L143.009 138.025C143.687 138.035 144.376 138.044 145.054 138.044L145.054 61.2578L145.054 61.2676Z" fill="#01AE9D"/>
<circle cx="36.2492" cy="36.2492" r="36.2492" transform="matrix(-1 -8.74228e-08 -8.74228e-08 1 64.1066 63.4023)" fill="#FCC400"/>
<path d="M-12.3671 -16.5019L64.6048 -16.5019C64.6048 11.0816 50.0324 35.2613 28.1444 48.798C27.5348 49.1806 26.9251 49.5435 26.3057 49.8967C15.5091 56.1746 3.04102 59.9021 -10.2826 60.2552L-10.3219 60.2552C-11.0004 60.265 -11.6887 60.2748 -12.3671 60.2748L-12.3671 -16.5117L-12.3671 -16.5019Z" fill="#003F87"/>
<path fill-rule="evenodd" clip-rule="evenodd" d="M68.5805 60.7651L146.348 60.7651L68.5805 -17.002L68.5805 60.7651Z" fill="#FCC400"/>
<circle cx="186.572" cy="21.882" r="36.2492" fill="#01AE9D"/>
<path d="M230.773 -16.5019L307.745 -16.5019C307.745 11.0816 293.173 35.2613 271.285 48.798C270.675 49.1806 270.066 49.5435 269.446 49.8967C258.65 56.1746 246.182 59.9021 232.858 60.2552L232.819 60.2552C232.14 60.265 231.452 60.2748 230.773 60.2748L230.773 -16.5117L230.773 -16.5019Z" fill="#003F87"/>
<path fill-rule="evenodd" clip-rule="evenodd" d="M311.721 60.7651L389.488 60.7651L311.721 -17.002L311.721 60.7651Z" fill="#FCC400"/>
<circle cx="429.713" cy="21.882" r="36.2492" fill="#01AE9D"/>
</g>
<g opacity="0.02" clip-path="url(#clip4_2_3576)">
<path fill-rule="evenodd" clip-rule="evenodd" d="M959.937 960.535L882.17 960.535L959.938 882.768L959.937 960.535Z" fill="#003F87"/>
<path d="M878.195 883.268L801.223 883.268C801.223 910.851 815.795 935.031 837.683 948.568C838.293 948.95 838.902 949.313 839.522 949.666C850.318 955.944 862.787 959.672 876.11 960.025L876.149 960.025C876.828 960.035 877.516 960.044 878.195 960.044L878.195 883.258L878.195 883.268Z" fill="#01AE9D"/>
<circle cx="36.2492" cy="36.2492" r="36.2492" transform="matrix(-1 -8.74228e-08 -8.74228e-08 1 797.247 885.402)" fill="#FCC400"/>
<path fill-rule="evenodd" clip-rule="evenodd" d="M716.797 960.535L639.03 960.535L716.797 882.768L716.797 960.535Z" fill="#003F87"/>
<path d="M635.054 883.268L558.082 883.268C558.082 910.851 572.655 935.031 594.543 948.568C595.152 948.95 595.762 949.313 596.381 949.666C607.178 955.944 619.646 959.672 632.97 960.025L633.009 960.025C633.687 960.035 634.376 960.044 635.054 960.044L635.054 883.258L635.054 883.268Z" fill="#01AE9D"/>
<circle cx="36.2492" cy="36.2492" r="36.2492" transform="matrix(-1 -8.74228e-08 -8.74228e-08 1 554.107 885.402)" fill="#FCC400"/>
<path d="M477.633 805.498L554.605 805.498C554.605 833.082 540.033 857.261 518.144 870.798C517.535 871.181 516.925 871.544 516.306 871.897C505.509 878.175 493.041 881.902 479.717 882.255L479.678 882.255C479 882.265 478.311 882.275 477.633 882.275L477.633 805.488L477.633 805.498Z" fill="#003F87"/>
<path fill-rule="evenodd" clip-rule="evenodd" d="M558.581 882.765L636.348 882.765L558.581 804.998L558.581 882.765Z" fill="#FCC400"/>
<circle cx="676.573" cy="843.882" r="36.2492" fill="#01AE9D"/>
<path d="M720.773 805.498L797.745 805.498C797.745 833.082 783.173 857.261 761.285 870.798C760.675 871.181 760.066 871.544 759.446 871.897C748.65 878.175 736.182 881.902 722.858 882.255L722.819 882.255C722.14 882.265 721.452 882.275 720.773 882.275L720.773 805.488L720.773 805.498Z" fill="#003F87"/>
<path fill-rule="evenodd" clip-rule="evenodd" d="M801.721 882.765L879.488 882.765L801.721 804.998L801.721 882.765Z" fill="#FCC400"/>
<circle cx="919.713" cy="843.882" r="36.2492" fill="#01AE9D"/>
</g>
<g opacity="0.02" clip-path="url(#clip5_2_3576)">
<path fill-rule="evenodd" clip-rule="evenodd" d="M959.937 686.535L882.17 686.535L959.938 608.768L959.937 686.535Z" fill="#003F87"/>
<path d="M878.195 609.268L801.223 609.268C801.223 636.851 815.795 661.031 837.683 674.568C838.293 674.95 838.902 675.313 839.522 675.666C850.318 681.944 862.787 685.672 876.11 686.025L876.149 686.025C876.828 686.035 877.516 686.044 878.195 686.044L878.195 609.258L878.195 609.268Z" fill="#01AE9D"/>
<circle cx="36.2492" cy="36.2492" r="36.2492" transform="matrix(-1 -8.74228e-08 -8.74228e-08 1 797.247 611.402)" fill="#FCC400"/>
<path fill-rule="evenodd" clip-rule="evenodd" d="M716.797 686.535L639.03 686.535L716.797 608.768L716.797 686.535Z" fill="#003F87"/>
<path d="M635.054 609.268L558.082 609.268C558.082 636.851 572.655 661.031 594.543 674.568C595.152 674.95 595.762 675.313 596.381 675.666C607.178 681.944 619.646 685.672 632.97 686.025L633.009 686.025C633.687 686.035 634.376 686.044 635.054 686.044L635.054 609.258L635.054 609.268Z" fill="#01AE9D"/>
<circle cx="36.2492" cy="36.2492" r="36.2492" transform="matrix(-1 -8.74228e-08 -8.74228e-08 1 554.107 611.402)" fill="#FCC400"/>
<path d="M477.633 531.498L554.605 531.498C554.605 559.082 540.032 583.261 518.144 596.798C517.535 597.181 516.925 597.544 516.306 597.897C505.509 604.175 493.041 607.902 479.717 608.255L479.678 608.255C479 608.265 478.311 608.275 477.633 608.275L477.633 531.488L477.633 531.498Z" fill="#003F87"/>
<path fill-rule="evenodd" clip-rule="evenodd" d="M558.581 608.765L636.348 608.765L558.581 530.998L558.581 608.765Z" fill="#FCC400"/>
<circle cx="676.573" cy="569.882" r="36.2492" fill="#01AE9D"/>
<path d="M720.773 531.498L797.745 531.498C797.745 559.082 783.173 583.261 761.285 596.798C760.675 597.181 760.065 597.544 759.446 597.897C748.649 604.175 736.181 607.902 722.858 608.255L722.818 608.255C722.14 608.265 721.452 608.275 720.773 608.275L720.773 531.488L720.773 531.498Z" fill="#003F87"/>
<path fill-rule="evenodd" clip-rule="evenodd" d="M801.721 608.765L879.488 608.765L801.721 530.998L801.721 608.765Z" fill="#FCC400"/>
<circle cx="919.713" cy="569.882" r="36.2492" fill="#01AE9D"/>
</g>
<g opacity="0.02" clip-path="url(#clip6_2_3576)">
<path fill-rule="evenodd" clip-rule="evenodd" d="M959.937 412.535L882.17 412.535L959.938 334.768L959.937 412.535Z" fill="#003F87"/>
<path d="M878.195 335.268L801.223 335.268C801.223 362.851 815.795 387.031 837.683 400.568C838.293 400.95 838.902 401.313 839.522 401.666C850.318 407.944 862.787 411.672 876.11 412.025L876.149 412.025C876.828 412.035 877.516 412.044 878.195 412.044L878.195 335.258L878.195 335.268Z" fill="#01AE9D"/>
<circle cx="36.2492" cy="36.2492" r="36.2492" transform="matrix(-1 -8.74228e-08 -8.74228e-08 1 797.247 337.402)" fill="#FCC400"/>
<path fill-rule="evenodd" clip-rule="evenodd" d="M716.797 412.535L639.03 412.535L716.797 334.768L716.797 412.535Z" fill="#003F87"/>
<path d="M635.054 335.268L558.082 335.268C558.082 362.851 572.655 387.031 594.543 400.568C595.152 400.95 595.762 401.313 596.381 401.666C607.178 407.944 619.646 411.672 632.97 412.025L633.009 412.025C633.687 412.035 634.376 412.044 635.054 412.044L635.054 335.258L635.054 335.268Z" fill="#01AE9D"/>
<circle cx="36.2492" cy="36.2492" r="36.2492" transform="matrix(-1 -8.74228e-08 -8.74228e-08 1 554.107 337.402)" fill="#FCC400"/>
<path d="M477.633 257.498L554.605 257.498C554.605 285.082 540.033 309.261 518.144 322.798C517.535 323.181 516.925 323.544 516.306 323.897C505.509 330.175 493.041 333.902 479.717 334.255L479.678 334.255C479 334.265 478.311 334.275 477.633 334.275L477.633 257.488L477.633 257.498Z" fill="#003F87"/>
<path fill-rule="evenodd" clip-rule="evenodd" d="M558.581 334.765L636.348 334.765L558.581 256.998L558.581 334.765Z" fill="#FCC400"/>
<circle cx="676.573" cy="295.882" r="36.2492" fill="#01AE9D"/>
<path d="M720.773 257.498L797.745 257.498C797.745 285.082 783.173 309.261 761.285 322.798C760.675 323.181 760.066 323.544 759.446 323.897C748.65 330.175 736.182 333.902 722.858 334.255L722.819 334.255C722.14 334.265 721.452 334.275 720.773 334.275L720.773 257.488L720.773 257.498Z" fill="#003F87"/>
<path fill-rule="evenodd" clip-rule="evenodd" d="M801.721 334.765L879.488 334.765L801.721 256.998L801.721 334.765Z" fill="#FCC400"/>
<circle cx="919.713" cy="295.882" r="36.2492" fill="#01AE9D"/>
</g>
<g opacity="0.02" clip-path="url(#clip7_2_3576)">
<path fill-rule="evenodd" clip-rule="evenodd" d="M959.937 138.535L882.17 138.535L959.938 60.7676L959.937 138.535Z" fill="#003F87"/>
<path d="M878.195 61.2676L801.223 61.2676C801.223 88.8511 815.795 113.031 837.683 126.568C838.293 126.95 838.902 127.313 839.522 127.666C850.318 133.944 862.787 137.672 876.11 138.025L876.149 138.025C876.828 138.035 877.516 138.044 878.195 138.044L878.195 61.2578L878.195 61.2676Z" fill="#01AE9D"/>
<circle cx="36.2492" cy="36.2492" r="36.2492" transform="matrix(-1 -8.74228e-08 -8.74228e-08 1 797.247 63.4023)" fill="#FCC400"/>
<path fill-rule="evenodd" clip-rule="evenodd" d="M716.797 138.535L639.03 138.535L716.797 60.7676L716.797 138.535Z" fill="#003F87"/>
<path d="M635.054 61.2676L558.082 61.2676C558.082 88.8511 572.655 113.031 594.543 126.568C595.152 126.95 595.762 127.313 596.381 127.666C607.178 133.944 619.646 137.672 632.97 138.025L633.009 138.025C633.687 138.035 634.376 138.044 635.054 138.044L635.054 61.2578L635.054 61.2676Z" fill="#01AE9D"/>
<circle cx="36.2492" cy="36.2492" r="36.2492" transform="matrix(-1 -8.74228e-08 -8.74228e-08 1 554.107 63.4023)" fill="#FCC400"/>
<path d="M477.633 -16.5019L554.605 -16.5019C554.605 11.0816 540.033 35.2613 518.144 48.798C517.535 49.1806 516.925 49.5435 516.306 49.8967C505.509 56.1746 493.041 59.9021 479.717 60.2552L479.678 60.2552C479 60.265 478.311 60.2748 477.633 60.2748L477.633 -16.5117L477.633 -16.5019Z" fill="#003F87"/>
<path fill-rule="evenodd" clip-rule="evenodd" d="M558.581 60.7651L636.348 60.7651L558.581 -17.002L558.581 60.7651Z" fill="#FCC400"/>
<circle cx="676.573" cy="21.882" r="36.2492" fill="#01AE9D"/>
<path d="M720.773 -16.5019L797.745 -16.5019C797.745 11.0816 783.173 35.2613 761.285 48.798C760.675 49.1806 760.066 49.5435 759.446 49.8967C748.65 56.1746 736.182 59.9021 722.858 60.2552L722.819 60.2552C722.14 60.265 721.452 60.2748 720.773 60.2748L720.773 -16.5117L720.773 -16.5019Z" fill="#003F87"/>
<path fill-rule="evenodd" clip-rule="evenodd" d="M801.721 60.7651L879.488 60.7651L801.721 -17.002L801.721 60.7651Z" fill="#FCC400"/>
<circle cx="919.713" cy="21.882" r="36.2492" fill="#01AE9D"/>
</g>
<g opacity="0.02" clip-path="url(#clip8_2_3576)">
<path fill-rule="evenodd" clip-rule="evenodd" d="M469.937 1079.53L392.17 1079.53L469.938 1001.77L469.937 1079.53Z" fill="#003F87"/>
<path d="M388.195 1002.27L311.223 1002.27C311.223 1029.85 325.795 1054.03 347.683 1067.57C348.293 1067.95 348.902 1068.31 349.522 1068.67C360.318 1074.94 372.787 1078.67 386.11 1079.02L386.149 1079.02C386.828 1079.03 387.516 1079.04 388.195 1079.04L388.195 1002.26L388.195 1002.27Z" fill="#01AE9D"/>
<circle cx="36.2492" cy="36.2492" r="36.2492" transform="matrix(-1 -8.74228e-08 -8.74228e-08 1 307.247 1004.4)" fill="#FCC400"/>
<path fill-rule="evenodd" clip-rule="evenodd" d="M226.797 1079.53L149.03 1079.53L226.797 1001.77L226.797 1079.53Z" fill="#003F87"/>
<path d="M145.054 1002.27L68.0823 1002.27C68.0823 1029.85 82.6547 1054.03 104.543 1067.57C105.152 1067.95 105.762 1068.31 106.381 1068.67C117.178 1074.94 129.646 1078.67 142.97 1079.02L143.009 1079.02C143.687 1079.03 144.376 1079.04 145.054 1079.04L145.054 1002.26L145.054 1002.27Z" fill="#01AE9D"/>
<circle cx="36.2492" cy="36.2492" r="36.2492" transform="matrix(-1 -8.74228e-08 -8.74228e-08 1 64.1066 1004.4)" fill="#FCC400"/>
<path d="M-12.3671 924.498L64.6048 924.498C64.6048 952.082 50.0324 976.261 28.1444 989.798C27.5348 990.181 26.9251 990.544 26.3057 990.897C15.5091 997.175 3.04102 1000.9 -10.2826 1001.26L-10.3219 1001.26C-11.0004 1001.26 -11.6887 1001.27 -12.3671 1001.27L-12.3671 924.488L-12.3671 924.498Z" fill="#003F87"/>
<path fill-rule="evenodd" clip-rule="evenodd" d="M68.5805 1001.77L146.348 1001.77L68.5805 923.998L68.5805 1001.77Z" fill="#FCC400"/>
<circle cx="186.572" cy="962.882" r="36.2492" fill="#01AE9D"/>
<path d="M230.773 924.498L307.745 924.498C307.745 952.082 293.173 976.261 271.285 989.798C270.675 990.181 270.066 990.544 269.446 990.897C258.65 997.175 246.182 1000.9 232.858 1001.26L232.819 1001.26C232.14 1001.26 231.452 1001.27 230.773 1001.27L230.773 924.488L230.773 924.498Z" fill="#003F87"/>
<path fill-rule="evenodd" clip-rule="evenodd" d="M311.721 1001.77L389.488 1001.77L311.721 923.998L311.721 1001.77Z" fill="#FCC400"/>
<circle cx="429.713" cy="962.882" r="36.2492" fill="#01AE9D"/>
</g>
<g opacity="0.02" clip-path="url(#clip9_2_3576)">
<path fill-rule="evenodd" clip-rule="evenodd" d="M469.937 805.535L392.17 805.535L469.938 727.768L469.937 805.535Z" fill="#003F87"/>
<path d="M388.195 728.268L311.223 728.268C311.223 755.851 325.795 780.031 347.683 793.568C348.293 793.95 348.902 794.313 349.522 794.666C360.318 800.944 372.787 804.672 386.11 805.025L386.149 805.025C386.828 805.035 387.516 805.044 388.195 805.044L388.195 728.258L388.195 728.268Z" fill="#01AE9D"/>
<circle cx="36.2492" cy="36.2492" r="36.2492" transform="matrix(-1 -8.74228e-08 -8.74228e-08 1 307.247 730.402)" fill="#FCC400"/>
<path fill-rule="evenodd" clip-rule="evenodd" d="M226.797 805.535L149.03 805.535L226.797 727.768L226.797 805.535Z" fill="#003F87"/>
<path d="M145.054 728.268L68.0823 728.268C68.0823 755.851 82.6547 780.031 104.543 793.568C105.152 793.95 105.762 794.313 106.381 794.666C117.178 800.944 129.646 804.672 142.97 805.025L143.009 805.025C143.687 805.035 144.376 805.044 145.054 805.044L145.054 728.258L145.054 728.268Z" fill="#01AE9D"/>
<circle cx="36.2492" cy="36.2492" r="36.2492" transform="matrix(-1 -8.74228e-08 -8.74228e-08 1 64.1066 730.402)" fill="#FCC400"/>
<path d="M-12.3671 650.498L64.6048 650.498C64.6048 678.082 50.0324 702.261 28.1444 715.798C27.5348 716.181 26.9251 716.544 26.3057 716.897C15.5091 723.175 3.04102 726.902 -10.2826 727.255L-10.3219 727.255C-11.0004 727.265 -11.6887 727.275 -12.3671 727.275L-12.3671 650.488L-12.3671 650.498Z" fill="#003F87"/>
<path fill-rule="evenodd" clip-rule="evenodd" d="M68.5805 727.765L146.348 727.765L68.5805 649.998L68.5805 727.765Z" fill="#FCC400"/>
<circle cx="186.572" cy="688.882" r="36.2492" fill="#01AE9D"/>
<path d="M230.773 650.498L307.745 650.498C307.745 678.082 293.173 702.261 271.285 715.798C270.675 716.181 270.066 716.544 269.446 716.897C258.65 723.175 246.182 726.902 232.858 727.255L232.819 727.255C232.14 727.265 231.452 727.275 230.773 727.275L230.773 650.488L230.773 650.498Z" fill="#003F87"/>
<path fill-rule="evenodd" clip-rule="evenodd" d="M311.721 727.765L389.488 727.765L311.721 649.998L311.721 727.765Z" fill="#FCC400"/>
<circle cx="429.713" cy="688.882" r="36.2492" fill="#01AE9D"/>
</g>
<g opacity="0.02" clip-path="url(#clip10_2_3576)">
<path fill-rule="evenodd" clip-rule="evenodd" d="M469.937 531.535L392.17 531.535L469.938 453.768L469.937 531.535Z" fill="#003F87"/>
<path d="M388.195 454.268L311.223 454.268C311.223 481.851 325.795 506.031 347.683 519.568C348.293 519.95 348.902 520.313 349.522 520.666C360.318 526.944 372.787 530.672 386.11 531.025L386.149 531.025C386.828 531.035 387.516 531.044 388.195 531.044L388.195 454.258L388.195 454.268Z" fill="#01AE9D"/>
<circle cx="36.2492" cy="36.2492" r="36.2492" transform="matrix(-1 -8.74228e-08 -8.74228e-08 1 307.247 456.402)" fill="#FCC400"/>
<path fill-rule="evenodd" clip-rule="evenodd" d="M226.797 531.535L149.03 531.535L226.797 453.768L226.797 531.535Z" fill="#003F87"/>
<path d="M145.054 454.268L68.0823 454.268C68.0823 481.851 82.6547 506.031 104.543 519.568C105.152 519.95 105.762 520.313 106.381 520.666C117.178 526.944 129.646 530.672 142.97 531.025L143.009 531.025C143.687 531.035 144.376 531.044 145.054 531.044L145.054 454.258L145.054 454.268Z" fill="#01AE9D"/>
<circle cx="36.2492" cy="36.2492" r="36.2492" transform="matrix(-1 -8.74228e-08 -8.74228e-08 1 64.1066 456.402)" fill="#FCC400"/>
<path d="M-12.3671 376.498L64.6048 376.498C64.6048 404.082 50.0324 428.261 28.1444 441.798C27.5348 442.181 26.9251 442.544 26.3057 442.897C15.5091 449.175 3.04102 452.902 -10.2826 453.255L-10.3219 453.255C-11.0004 453.265 -11.6887 453.275 -12.3671 453.275L-12.3671 376.488L-12.3671 376.498Z" fill="#003F87"/>
<path fill-rule="evenodd" clip-rule="evenodd" d="M68.5805 453.765L146.348 453.765L68.5805 375.998L68.5805 453.765Z" fill="#FCC400"/>
<circle cx="186.572" cy="414.882" r="36.2492" fill="#01AE9D"/>
<path d="M230.773 376.498L307.745 376.498C307.745 404.082 293.173 428.261 271.285 441.798C270.675 442.181 270.066 442.544 269.446 442.897C258.65 449.175 246.182 452.902 232.858 453.255L232.819 453.255C232.14 453.265 231.452 453.275 230.773 453.275L230.773 376.488L230.773 376.498Z" fill="#003F87"/>
<path fill-rule="evenodd" clip-rule="evenodd" d="M311.721 453.765L389.488 453.765L311.721 375.998L311.721 453.765Z" fill="#FCC400"/>
<circle cx="429.713" cy="414.882" r="36.2492" fill="#01AE9D"/>
</g>
<g opacity="0.02" clip-path="url(#clip11_2_3576)">
<path fill-rule="evenodd" clip-rule="evenodd" d="M469.937 257.535L392.17 257.535L469.938 179.768L469.937 257.535Z" fill="#003F87"/>
<path d="M388.195 180.268L311.223 180.268C311.223 207.851 325.795 232.031 347.683 245.568C348.293 245.95 348.902 246.313 349.522 246.666C360.318 252.944 372.787 256.672 386.11 257.025L386.149 257.025C386.828 257.035 387.516 257.044 388.195 257.044L388.195 180.258L388.195 180.268Z" fill="#01AE9D"/>
<circle cx="36.2492" cy="36.2492" r="36.2492" transform="matrix(-1 -8.74228e-08 -8.74228e-08 1 307.247 182.402)" fill="#FCC400"/>
<path fill-rule="evenodd" clip-rule="evenodd" d="M226.797 257.535L149.03 257.535L226.797 179.768L226.797 257.535Z" fill="#003F87"/>
<path d="M145.054 180.268L68.0823 180.268C68.0823 207.851 82.6547 232.031 104.543 245.568C105.152 245.95 105.762 246.313 106.381 246.666C117.178 252.944 129.646 256.672 142.97 257.025L143.009 257.025C143.687 257.035 144.376 257.044 145.054 257.044L145.054 180.258L145.054 180.268Z" fill="#01AE9D"/>
<circle cx="36.2492" cy="36.2492" r="36.2492" transform="matrix(-1 -8.74228e-08 -8.74228e-08 1 64.1066 182.402)" fill="#FCC400"/>
<path d="M-12.3671 102.498L64.6048 102.498C64.6048 130.082 50.0324 154.261 28.1444 167.798C27.5348 168.181 26.9251 168.544 26.3057 168.897C15.5091 175.175 3.04102 178.902 -10.2826 179.255L-10.3219 179.255C-11.0004 179.265 -11.6887 179.275 -12.3671 179.275L-12.3671 102.488L-12.3671 102.498Z" fill="#003F87"/>
<path fill-rule="evenodd" clip-rule="evenodd" d="M68.5805 179.765L146.348 179.765L68.5805 101.998L68.5805 179.765Z" fill="#FCC400"/>
<circle cx="186.572" cy="140.882" r="36.2492" fill="#01AE9D"/>
<path d="M230.773 102.498L307.745 102.498C307.745 130.082 293.173 154.261 271.285 167.798C270.675 168.181 270.066 168.544 269.446 168.897C258.65 175.175 246.182 178.902 232.858 179.255L232.819 179.255C232.14 179.265 231.452 179.275 230.773 179.275L230.773 102.488L230.773 102.498Z" fill="#003F87"/>
<path fill-rule="evenodd" clip-rule="evenodd" d="M311.721 179.765L389.488 179.765L311.721 101.998L311.721 179.765Z" fill="#FCC400"/>
<circle cx="429.713" cy="140.882" r="36.2492" fill="#01AE9D"/>
</g>
<g opacity="0.02" clip-path="url(#clip12_2_3576)">
<path fill-rule="evenodd" clip-rule="evenodd" d="M959.937 1079.53L882.17 1079.53L959.938 1001.77L959.937 1079.53Z" fill="#003F87"/>
<path d="M878.195 1002.27L801.223 1002.27C801.223 1029.85 815.795 1054.03 837.683 1067.57C838.293 1067.95 838.902 1068.31 839.522 1068.67C850.318 1074.94 862.787 1078.67 876.11 1079.02L876.149 1079.02C876.828 1079.03 877.516 1079.04 878.195 1079.04L878.195 1002.26L878.195 1002.27Z" fill="#01AE9D"/>
<circle cx="36.2492" cy="36.2492" r="36.2492" transform="matrix(-1 -8.74228e-08 -8.74228e-08 1 797.247 1004.4)" fill="#FCC400"/>
<path fill-rule="evenodd" clip-rule="evenodd" d="M716.797 1079.53L639.03 1079.53L716.797 1001.77L716.797 1079.53Z" fill="#003F87"/>
<path d="M635.054 1002.27L558.082 1002.27C558.082 1029.85 572.655 1054.03 594.543 1067.57C595.152 1067.95 595.762 1068.31 596.381 1068.67C607.178 1074.94 619.646 1078.67 632.97 1079.02L633.009 1079.02C633.687 1079.03 634.376 1079.04 635.054 1079.04L635.054 1002.26L635.054 1002.27Z" fill="#01AE9D"/>
<circle cx="36.2492" cy="36.2492" r="36.2492" transform="matrix(-1 -8.74228e-08 -8.74228e-08 1 554.107 1004.4)" fill="#FCC400"/>
<path d="M477.633 924.498L554.605 924.498C554.605 952.082 540.033 976.261 518.144 989.798C517.535 990.181 516.925 990.544 516.306 990.897C505.509 997.175 493.041 1000.9 479.717 1001.26L479.678 1001.26C479 1001.26 478.311 1001.27 477.633 1001.27L477.633 924.488L477.633 924.498Z" fill="#003F87"/>
<path fill-rule="evenodd" clip-rule="evenodd" d="M558.581 1001.77L636.348 1001.77L558.581 923.998L558.581 1001.77Z" fill="#FCC400"/>
<circle cx="676.573" cy="962.882" r="36.2492" fill="#01AE9D"/>
<path d="M720.773 924.498L797.745 924.498C797.745 952.082 783.173 976.261 761.285 989.798C760.675 990.181 760.066 990.544 759.446 990.897C748.65 997.175 736.182 1000.9 722.858 1001.26L722.819 1001.26C722.14 1001.26 721.452 1001.27 720.773 1001.27L720.773 924.488L720.773 924.498Z" fill="#003F87"/>
<path fill-rule="evenodd" clip-rule="evenodd" d="M801.721 1001.77L879.488 1001.77L801.721 923.998L801.721 1001.77Z" fill="#FCC400"/>
<circle cx="919.713" cy="962.882" r="36.2492" fill="#01AE9D"/>
</g>
<g opacity="0.02" clip-path="url(#clip13_2_3576)">
<path fill-rule="evenodd" clip-rule="evenodd" d="M959.937 805.535L882.17 805.535L959.938 727.768L959.937 805.535Z" fill="#003F87"/>
<path d="M878.195 728.268L801.223 728.268C801.223 755.851 815.795 780.031 837.683 793.568C838.293 793.95 838.902 794.313 839.522 794.666C850.318 800.944 862.787 804.672 876.11 805.025L876.149 805.025C876.828 805.035 877.516 805.044 878.195 805.044L878.195 728.258L878.195 728.268Z" fill="#01AE9D"/>
<circle cx="36.2492" cy="36.2492" r="36.2492" transform="matrix(-1 -8.74228e-08 -8.74228e-08 1 797.247 730.402)" fill="#FCC400"/>
<path fill-rule="evenodd" clip-rule="evenodd" d="M716.797 805.535L639.03 805.535L716.797 727.768L716.797 805.535Z" fill="#003F87"/>
<path d="M635.054 728.268L558.082 728.268C558.082 755.851 572.655 780.031 594.543 793.568C595.152 793.95 595.762 794.313 596.381 794.666C607.178 800.944 619.646 804.672 632.97 805.025L633.009 805.025C633.687 805.035 634.376 805.044 635.054 805.044L635.054 728.258L635.054 728.268Z" fill="#01AE9D"/>
<circle cx="36.2492" cy="36.2492" r="36.2492" transform="matrix(-1 -8.74228e-08 -8.74228e-08 1 554.107 730.402)" fill="#FCC400"/>
<path d="M477.633 650.498L554.605 650.498C554.605 678.082 540.033 702.261 518.144 715.798C517.535 716.181 516.925 716.544 516.306 716.897C505.509 723.175 493.041 726.902 479.717 727.255L479.678 727.255C479 727.265 478.311 727.275 477.633 727.275L477.633 650.488L477.633 650.498Z" fill="#003F87"/>
<path fill-rule="evenodd" clip-rule="evenodd" d="M558.581 727.765L636.348 727.765L558.581 649.998L558.581 727.765Z" fill="#FCC400"/>
<circle cx="676.573" cy="688.882" r="36.2492" fill="#01AE9D"/>
<path d="M720.773 650.498L797.745 650.498C797.745 678.082 783.173 702.261 761.285 715.798C760.675 716.181 760.066 716.544 759.446 716.897C748.65 723.175 736.182 726.902 722.858 727.255L722.819 727.255C722.14 727.265 721.452 727.275 720.773 727.275L720.773 650.488L720.773 650.498Z" fill="#003F87"/>
<path fill-rule="evenodd" clip-rule="evenodd" d="M801.721 727.765L879.488 727.765L801.721 649.998L801.721 727.765Z" fill="#FCC400"/>
<circle cx="919.713" cy="688.882" r="36.2492" fill="#01AE9D"/>
</g>
<g opacity="0.02" clip-path="url(#clip14_2_3576)">
<path fill-rule="evenodd" clip-rule="evenodd" d="M959.937 531.535L882.17 531.535L959.938 453.768L959.937 531.535Z" fill="#003F87"/>
<path d="M878.195 454.268L801.223 454.268C801.223 481.851 815.795 506.031 837.683 519.568C838.293 519.95 838.902 520.313 839.522 520.666C850.318 526.944 862.787 530.672 876.11 531.025L876.149 531.025C876.828 531.035 877.516 531.044 878.195 531.044L878.195 454.258L878.195 454.268Z" fill="#01AE9D"/>
<circle cx="36.2492" cy="36.2492" r="36.2492" transform="matrix(-1 -8.74228e-08 -8.74228e-08 1 797.247 456.402)" fill="#FCC400"/>
<path fill-rule="evenodd" clip-rule="evenodd" d="M716.797 531.535L639.03 531.535L716.797 453.768L716.797 531.535Z" fill="#003F87"/>
<path d="M635.054 454.268L558.082 454.268C558.082 481.851 572.655 506.031 594.543 519.568C595.152 519.95 595.762 520.313 596.381 520.666C607.178 526.944 619.646 530.672 632.97 531.025L633.009 531.025C633.687 531.035 634.376 531.044 635.054 531.044L635.054 454.258L635.054 454.268Z" fill="#01AE9D"/>
<circle cx="36.2492" cy="36.2492" r="36.2492" transform="matrix(-1 -8.74228e-08 -8.74228e-08 1 554.107 456.402)" fill="#FCC400"/>
<path d="M477.633 376.498L554.605 376.498C554.605 404.082 540.033 428.261 518.144 441.798C517.535 442.181 516.925 442.544 516.306 442.897C505.509 449.175 493.041 452.902 479.717 453.255L479.678 453.255C479 453.265 478.311 453.275 477.633 453.275L477.633 376.488L477.633 376.498Z" fill="#003F87"/>
<path fill-rule="evenodd" clip-rule="evenodd" d="M558.581 453.765L636.348 453.765L558.581 375.998L558.581 453.765Z" fill="#FCC400"/>
<circle cx="676.573" cy="414.882" r="36.2492" fill="#01AE9D"/>
<path d="M720.773 376.498L797.745 376.498C797.745 404.082 783.173 428.261 761.285 441.798C760.675 442.181 760.066 442.544 759.446 442.897C748.65 449.175 736.182 452.902 722.858 453.255L722.819 453.255C722.14 453.265 721.452 453.275 720.773 453.275L720.773 376.488L720.773 376.498Z" fill="#003F87"/>
<path fill-rule="evenodd" clip-rule="evenodd" d="M801.721 453.765L879.488 453.765L801.721 375.998L801.721 453.765Z" fill="#FCC400"/>
<circle cx="919.713" cy="414.882" r="36.2492" fill="#01AE9D"/>
</g>
<g opacity="0.02" clip-path="url(#clip15_2_3576)">
<path fill-rule="evenodd" clip-rule="evenodd" d="M959.937 257.535L882.17 257.535L959.938 179.768L959.937 257.535Z" fill="#003F87"/>
<path d="M878.195 180.268L801.223 180.268C801.223 207.851 815.795 232.031 837.683 245.568C838.293 245.95 838.902 246.313 839.522 246.666C850.318 252.944 862.787 256.672 876.11 257.025L876.149 257.025C876.828 257.035 877.516 257.044 878.195 257.044L878.195 180.258L878.195 180.268Z" fill="#01AE9D"/>
<circle cx="36.2492" cy="36.2492" r="36.2492" transform="matrix(-1 -8.74228e-08 -8.74228e-08 1 797.247 182.402)" fill="#FCC400"/>
<path fill-rule="evenodd" clip-rule="evenodd" d="M716.797 257.535L639.03 257.535L716.797 179.768L716.797 257.535Z" fill="#003F87"/>
<path d="M635.054 180.268L558.082 180.268C558.082 207.851 572.655 232.031 594.543 245.568C595.152 245.95 595.762 246.313 596.381 246.666C607.178 252.944 619.646 256.672 632.97 257.025L633.009 257.025C633.687 257.035 634.376 257.044 635.054 257.044L635.054 180.258L635.054 180.268Z" fill="#01AE9D"/>
<circle cx="36.2492" cy="36.2492" r="36.2492" transform="matrix(-1 -8.74228e-08 -8.74228e-08 1 554.107 182.402)" fill="#FCC400"/>
<path d="M477.633 102.498L554.605 102.498C554.605 130.082 540.033 154.261 518.144 167.798C517.535 168.181 516.925 168.544 516.306 168.897C505.509 175.175 493.041 178.902 479.717 179.255L479.678 179.255C479 179.265 478.311 179.275 477.633 179.275L477.633 102.488L477.633 102.498Z" fill="#003F87"/>
<path fill-rule="evenodd" clip-rule="evenodd" d="M558.581 179.765L636.348 179.765L558.581 101.998L558.581 179.765Z" fill="#FCC400"/>
<circle cx="676.573" cy="140.882" r="36.2492" fill="#01AE9D"/>
<path d="M720.773 102.498L797.745 102.498C797.745 130.082 783.173 154.261 761.285 167.798C760.675 168.181 760.066 168.544 759.446 168.897C748.65 175.175 736.182 178.902 722.858 179.255L722.819 179.255C722.14 179.265 721.452 179.275 720.773 179.275L720.773 102.488L720.773 102.498Z" fill="#003F87"/>
<path fill-rule="evenodd" clip-rule="evenodd" d="M801.721 179.765L879.488 179.765L801.721 101.998L801.721 179.765Z" fill="#FCC400"/>
<circle cx="919.713" cy="140.882" r="36.2492" fill="#01AE9D"/>
</g>
<g opacity="0.02" clip-path="url(#clip16_2_3576)">
<path fill-rule="evenodd" clip-rule="evenodd" d="M1450.06 101.465L1527.83 101.465L1450.06 179.232L1450.06 101.465Z" fill="#003F87"/>
<path d="M1531.81 178.732L1608.78 178.732C1608.78 151.149 1594.21 126.969 1572.32 113.432C1571.71 113.05 1571.1 112.687 1570.48 112.334C1559.68 106.056 1547.21 102.328 1533.89 101.975L1533.85 101.975C1533.17 101.965 1532.48 101.956 1531.81 101.956L1531.81 178.742L1531.81 178.732Z" fill="#01AE9D"/>
<circle cx="36.2492" cy="36.2492" r="36.2492" transform="matrix(1 8.74228e-08 8.74228e-08 -1 1612.75 176.598)" fill="#FCC400"/>
<path fill-rule="evenodd" clip-rule="evenodd" d="M1693.2 101.465L1770.97 101.465L1693.2 179.232L1693.2 101.465Z" fill="#003F87"/>
<path d="M1774.95 178.732L1851.92 178.732C1851.92 151.149 1837.35 126.969 1815.46 113.432C1814.85 113.05 1814.24 112.687 1813.62 112.334C1802.82 106.056 1790.35 102.328 1777.03 101.975L1776.99 101.975C1776.31 101.965 1775.62 101.956 1774.95 101.956L1774.95 178.742L1774.95 178.732Z" fill="#01AE9D"/>
<circle cx="36.2492" cy="36.2492" r="36.2492" transform="matrix(1 8.74228e-08 8.74228e-08 -1 1855.89 176.598)" fill="#FCC400"/>
<path d="M1932.37 256.502L1855.4 256.502C1855.4 228.918 1869.97 204.739 1891.86 191.202C1892.47 190.819 1893.07 190.456 1893.69 190.103C1904.49 183.825 1916.96 180.098 1930.28 179.745L1930.32 179.745C1931 179.735 1931.69 179.725 1932.37 179.725L1932.37 256.512L1932.37 256.502Z" fill="#003F87"/>
<path fill-rule="evenodd" clip-rule="evenodd" d="M1851.42 179.235L1773.65 179.235L1851.42 257.002L1851.42 179.235Z" fill="#FCC400"/>
<circle cx="1733.43" cy="218.118" r="36.2492" transform="rotate(-180 1733.43 218.118)" fill="#01AE9D"/>
<path d="M1689.23 256.502L1612.25 256.502C1612.25 228.918 1626.83 204.739 1648.72 191.202C1649.32 190.819 1649.93 190.456 1650.55 190.103C1661.35 183.825 1673.82 180.098 1687.14 179.745L1687.18 179.745C1687.86 179.735 1688.55 179.725 1689.23 179.725L1689.23 256.512L1689.23 256.502Z" fill="#003F87"/>
<path fill-rule="evenodd" clip-rule="evenodd" d="M1608.28 179.235L1530.51 179.235L1608.28 257.002L1608.28 179.235Z" fill="#FCC400"/>
<circle cx="1490.29" cy="218.118" r="36.2492" transform="rotate(-180 1490.29 218.118)" fill="#01AE9D"/>
</g>
<g opacity="0.02" clip-path="url(#clip17_2_3576)">
<path fill-rule="evenodd" clip-rule="evenodd" d="M1450.06 375.465L1527.83 375.465L1450.06 453.232L1450.06 375.465Z" fill="#003F87"/>
<path d="M1531.81 452.732L1608.78 452.732C1608.78 425.149 1594.21 400.969 1572.32 387.432C1571.71 387.05 1571.1 386.687 1570.48 386.334C1559.68 380.056 1547.21 376.328 1533.89 375.975L1533.85 375.975C1533.17 375.965 1532.48 375.956 1531.81 375.956L1531.81 452.742L1531.81 452.732Z" fill="#01AE9D"/>
<circle cx="36.2492" cy="36.2492" r="36.2492" transform="matrix(1 8.74228e-08 8.74228e-08 -1 1612.75 450.598)" fill="#FCC400"/>
<path fill-rule="evenodd" clip-rule="evenodd" d="M1693.2 375.465L1770.97 375.465L1693.2 453.232L1693.2 375.465Z" fill="#003F87"/>
<path d="M1774.95 452.732L1851.92 452.732C1851.92 425.149 1837.35 400.969 1815.46 387.432C1814.85 387.05 1814.24 386.687 1813.62 386.334C1802.82 380.056 1790.35 376.328 1777.03 375.975L1776.99 375.975C1776.31 375.965 1775.62 375.956 1774.95 375.956L1774.95 452.742L1774.95 452.732Z" fill="#01AE9D"/>
<circle cx="36.2492" cy="36.2492" r="36.2492" transform="matrix(1 8.74228e-08 8.74228e-08 -1 1855.89 450.598)" fill="#FCC400"/>
<path d="M1932.37 530.502L1855.4 530.502C1855.4 502.918 1869.97 478.739 1891.86 465.202C1892.47 464.819 1893.07 464.456 1893.69 464.103C1904.49 457.825 1916.96 454.098 1930.28 453.745L1930.32 453.745C1931 453.735 1931.69 453.725 1932.37 453.725L1932.37 530.512L1932.37 530.502Z" fill="#003F87"/>
<path fill-rule="evenodd" clip-rule="evenodd" d="M1851.42 453.235L1773.65 453.235L1851.42 531.002L1851.42 453.235Z" fill="#FCC400"/>
<circle cx="1733.43" cy="492.118" r="36.2492" transform="rotate(-180 1733.43 492.118)" fill="#01AE9D"/>
<path d="M1689.23 530.502L1612.25 530.502C1612.25 502.918 1626.83 478.739 1648.72 465.202C1649.32 464.819 1649.93 464.456 1650.55 464.103C1661.35 457.825 1673.82 454.098 1687.14 453.745L1687.18 453.745C1687.86 453.735 1688.55 453.725 1689.23 453.725L1689.23 530.512L1689.23 530.502Z" fill="#003F87"/>
<path fill-rule="evenodd" clip-rule="evenodd" d="M1608.28 453.235L1530.51 453.235L1608.28 531.002L1608.28 453.235Z" fill="#FCC400"/>
<circle cx="1490.29" cy="492.118" r="36.2492" transform="rotate(-180 1490.29 492.118)" fill="#01AE9D"/>
</g>
<g opacity="0.02" clip-path="url(#clip18_2_3576)">
<path fill-rule="evenodd" clip-rule="evenodd" d="M1450.06 649.465L1527.83 649.465L1450.06 727.232L1450.06 649.465Z" fill="#003F87"/>
<path d="M1531.81 726.732L1608.78 726.732C1608.78 699.149 1594.21 674.969 1572.32 661.432C1571.71 661.05 1571.1 660.687 1570.48 660.334C1559.68 654.056 1547.21 650.328 1533.89 649.975L1533.85 649.975C1533.17 649.965 1532.48 649.956 1531.81 649.956L1531.81 726.742L1531.81 726.732Z" fill="#01AE9D"/>
<circle cx="36.2492" cy="36.2492" r="36.2492" transform="matrix(1 8.74228e-08 8.74228e-08 -1 1612.75 724.598)" fill="#FCC400"/>
<path fill-rule="evenodd" clip-rule="evenodd" d="M1693.2 649.465L1770.97 649.465L1693.2 727.232L1693.2 649.465Z" fill="#003F87"/>
<path d="M1774.95 726.732L1851.92 726.732C1851.92 699.149 1837.35 674.969 1815.46 661.432C1814.85 661.05 1814.24 660.687 1813.62 660.334C1802.82 654.056 1790.35 650.328 1777.03 649.975L1776.99 649.975C1776.31 649.965 1775.62 649.956 1774.95 649.956L1774.95 726.742L1774.95 726.732Z" fill="#01AE9D"/>
<circle cx="36.2492" cy="36.2492" r="36.2492" transform="matrix(1 8.74228e-08 8.74228e-08 -1 1855.89 724.598)" fill="#FCC400"/>
<path d="M1932.37 804.502L1855.4 804.502C1855.4 776.918 1869.97 752.739 1891.86 739.202C1892.47 738.819 1893.07 738.456 1893.69 738.103C1904.49 731.825 1916.96 728.098 1930.28 727.745L1930.32 727.745C1931 727.735 1931.69 727.725 1932.37 727.725L1932.37 804.512L1932.37 804.502Z" fill="#003F87"/>
<path fill-rule="evenodd" clip-rule="evenodd" d="M1851.42 727.235L1773.65 727.235L1851.42 805.002L1851.42 727.235Z" fill="#FCC400"/>
<circle cx="1733.43" cy="766.118" r="36.2492" transform="rotate(-180 1733.43 766.118)" fill="#01AE9D"/>
<path d="M1689.23 804.502L1612.25 804.502C1612.25 776.918 1626.83 752.739 1648.72 739.202C1649.32 738.819 1649.93 738.456 1650.55 738.103C1661.35 731.825 1673.82 728.098 1687.14 727.745L1687.18 727.745C1687.86 727.735 1688.55 727.725 1689.23 727.725L1689.23 804.512L1689.23 804.502Z" fill="#003F87"/>
<path fill-rule="evenodd" clip-rule="evenodd" d="M1608.28 727.235L1530.51 727.235L1608.28 805.002L1608.28 727.235Z" fill="#FCC400"/>
<circle cx="1490.29" cy="766.118" r="36.2492" transform="rotate(-180 1490.29 766.118)" fill="#01AE9D"/>
</g>
<g opacity="0.02" clip-path="url(#clip19_2_3576)">
<path fill-rule="evenodd" clip-rule="evenodd" d="M1450.06 923.465L1527.83 923.465L1450.06 1001.23L1450.06 923.465Z" fill="#003F87"/>
<path d="M1531.81 1000.73L1608.78 1000.73C1608.78 973.149 1594.21 948.969 1572.32 935.432C1571.71 935.05 1571.1 934.687 1570.48 934.334C1559.68 928.056 1547.21 924.328 1533.89 923.975L1533.85 923.975C1533.17 923.965 1532.48 923.956 1531.81 923.956L1531.81 1000.74L1531.81 1000.73Z" fill="#01AE9D"/>
<circle cx="36.2492" cy="36.2492" r="36.2492" transform="matrix(1 8.74228e-08 8.74228e-08 -1 1612.75 998.598)" fill="#FCC400"/>
<path fill-rule="evenodd" clip-rule="evenodd" d="M1693.2 923.465L1770.97 923.465L1693.2 1001.23L1693.2 923.465Z" fill="#003F87"/>
<path d="M1774.95 1000.73L1851.92 1000.73C1851.92 973.149 1837.35 948.969 1815.46 935.432C1814.85 935.05 1814.24 934.687 1813.62 934.334C1802.82 928.056 1790.35 924.328 1777.03 923.975L1776.99 923.975C1776.31 923.965 1775.62 923.956 1774.95 923.956L1774.95 1000.74L1774.95 1000.73Z" fill="#01AE9D"/>
<circle cx="36.2492" cy="36.2492" r="36.2492" transform="matrix(1 8.74228e-08 8.74228e-08 -1 1855.89 998.598)" fill="#FCC400"/>
<path d="M1932.37 1078.5L1855.4 1078.5C1855.4 1050.92 1869.97 1026.74 1891.86 1013.2C1892.47 1012.82 1893.07 1012.46 1893.69 1012.1C1904.49 1005.83 1916.96 1002.1 1930.28 1001.74L1930.32 1001.74C1931 1001.74 1931.69 1001.73 1932.37 1001.73L1932.37 1078.51L1932.37 1078.5Z" fill="#003F87"/>
<path fill-rule="evenodd" clip-rule="evenodd" d="M1851.42 1001.23L1773.65 1001.23L1851.42 1079L1851.42 1001.23Z" fill="#FCC400"/>
<circle cx="1733.43" cy="1040.12" r="36.2492" transform="rotate(-180 1733.43 1040.12)" fill="#01AE9D"/>
<path d="M1689.23 1078.5L1612.25 1078.5C1612.25 1050.92 1626.83 1026.74 1648.72 1013.2C1649.32 1012.82 1649.93 1012.46 1650.55 1012.1C1661.35 1005.83 1673.82 1002.1 1687.14 1001.74L1687.18 1001.74C1687.86 1001.74 1688.55 1001.73 1689.23 1001.73L1689.23 1078.51L1689.23 1078.5Z" fill="#003F87"/>
<path fill-rule="evenodd" clip-rule="evenodd" d="M1608.28 1001.23L1530.51 1001.23L1608.28 1079L1608.28 1001.23Z" fill="#FCC400"/>
<circle cx="1490.29" cy="1040.12" r="36.2492" transform="rotate(-180 1490.29 1040.12)" fill="#01AE9D"/>
</g>
<g opacity="0.02" clip-path="url(#clip20_2_3576)">
<path fill-rule="evenodd" clip-rule="evenodd" d="M960.063 101.465L1037.83 101.465L960.062 179.232L960.063 101.465Z" fill="#003F87"/>
<path d="M1041.81 178.732L1118.78 178.732C1118.78 151.149 1104.2 126.969 1082.32 113.432C1081.71 113.05 1081.1 112.687 1080.48 112.334C1069.68 106.056 1057.21 102.328 1043.89 101.975L1043.85 101.975C1043.17 101.965 1042.48 101.956 1041.81 101.956L1041.81 178.742L1041.81 178.732Z" fill="#01AE9D"/>
<circle cx="36.2492" cy="36.2492" r="36.2492" transform="matrix(1 8.74228e-08 8.74228e-08 -1 1122.75 176.598)" fill="#FCC400"/>
<path fill-rule="evenodd" clip-rule="evenodd" d="M1203.2 101.465L1280.97 101.465L1203.2 179.232L1203.2 101.465Z" fill="#003F87"/>
<path d="M1284.95 178.732L1361.92 178.732C1361.92 151.149 1347.35 126.969 1325.46 113.432C1324.85 113.05 1324.24 112.687 1323.62 112.334C1312.82 106.056 1300.35 102.328 1287.03 101.975L1286.99 101.975C1286.31 101.965 1285.62 101.956 1284.95 101.956L1284.95 178.742L1284.95 178.732Z" fill="#01AE9D"/>
<circle cx="36.2492" cy="36.2492" r="36.2492" transform="matrix(1 8.74228e-08 8.74228e-08 -1 1365.89 176.598)" fill="#FCC400"/>
<path d="M1442.37 256.502L1365.4 256.502C1365.4 228.918 1379.97 204.739 1401.86 191.202C1402.47 190.819 1403.07 190.456 1403.69 190.103C1414.49 183.825 1426.96 180.098 1440.28 179.745L1440.32 179.745C1441 179.735 1441.69 179.725 1442.37 179.725L1442.37 256.512L1442.37 256.502Z" fill="#003F87"/>
<path fill-rule="evenodd" clip-rule="evenodd" d="M1361.42 179.235L1283.65 179.235L1361.42 257.002L1361.42 179.235Z" fill="#FCC400"/>
<circle cx="1243.43" cy="218.118" r="36.2492" transform="rotate(-180 1243.43 218.118)" fill="#01AE9D"/>
<path d="M1199.23 256.502L1122.25 256.502C1122.25 228.918 1136.83 204.739 1158.72 191.202C1159.32 190.819 1159.93 190.456 1160.55 190.103C1171.35 183.825 1183.82 180.098 1197.14 179.745L1197.18 179.745C1197.86 179.735 1198.55 179.725 1199.23 179.725L1199.23 256.512L1199.23 256.502Z" fill="#003F87"/>
<path fill-rule="evenodd" clip-rule="evenodd" d="M1118.28 179.235L1040.51 179.235L1118.28 257.002L1118.28 179.235Z" fill="#FCC400"/>
<circle cx="1000.29" cy="218.118" r="36.2492" transform="rotate(-180 1000.29 218.118)" fill="#01AE9D"/>
</g>
<g opacity="0.02" clip-path="url(#clip21_2_3576)">
<path fill-rule="evenodd" clip-rule="evenodd" d="M960.063 375.465L1037.83 375.465L960.062 453.232L960.063 375.465Z" fill="#003F87"/>
<path d="M1041.81 452.732L1118.78 452.732C1118.78 425.149 1104.2 400.969 1082.32 387.432C1081.71 387.05 1081.1 386.687 1080.48 386.334C1069.68 380.056 1057.21 376.328 1043.89 375.975L1043.85 375.975C1043.17 375.965 1042.48 375.956 1041.81 375.956L1041.81 452.742L1041.81 452.732Z" fill="#01AE9D"/>
<circle cx="36.2492" cy="36.2492" r="36.2492" transform="matrix(1 8.74228e-08 8.74228e-08 -1 1122.75 450.598)" fill="#FCC400"/>
<path fill-rule="evenodd" clip-rule="evenodd" d="M1203.2 375.465L1280.97 375.465L1203.2 453.232L1203.2 375.465Z" fill="#003F87"/>
<path d="M1284.95 452.732L1361.92 452.732C1361.92 425.149 1347.35 400.969 1325.46 387.432C1324.85 387.05 1324.24 386.687 1323.62 386.334C1312.82 380.056 1300.35 376.328 1287.03 375.975L1286.99 375.975C1286.31 375.965 1285.62 375.956 1284.95 375.956L1284.95 452.742L1284.95 452.732Z" fill="#01AE9D"/>
<circle cx="36.2492" cy="36.2492" r="36.2492" transform="matrix(1 8.74228e-08 8.74228e-08 -1 1365.89 450.598)" fill="#FCC400"/>
<path d="M1442.37 530.502L1365.4 530.502C1365.4 502.918 1379.97 478.739 1401.86 465.202C1402.47 464.819 1403.07 464.456 1403.69 464.103C1414.49 457.825 1426.96 454.098 1440.28 453.745L1440.32 453.745C1441 453.735 1441.69 453.725 1442.37 453.725L1442.37 530.512L1442.37 530.502Z" fill="#003F87"/>
<path fill-rule="evenodd" clip-rule="evenodd" d="M1361.42 453.235L1283.65 453.235L1361.42 531.002L1361.42 453.235Z" fill="#FCC400"/>
<circle cx="1243.43" cy="492.118" r="36.2492" transform="rotate(-180 1243.43 492.118)" fill="#01AE9D"/>
<path d="M1199.23 530.502L1122.25 530.502C1122.25 502.918 1136.83 478.739 1158.72 465.202C1159.32 464.819 1159.93 464.456 1160.55 464.103C1171.35 457.825 1183.82 454.098 1197.14 453.745L1197.18 453.745C1197.86 453.735 1198.55 453.725 1199.23 453.725L1199.23 530.512L1199.23 530.502Z" fill="#003F87"/>
<path fill-rule="evenodd" clip-rule="evenodd" d="M1118.28 453.235L1040.51 453.235L1118.28 531.002L1118.28 453.235Z" fill="#FCC400"/>
<circle cx="1000.29" cy="492.118" r="36.2492" transform="rotate(-180 1000.29 492.118)" fill="#01AE9D"/>
</g>
<g opacity="0.02" clip-path="url(#clip22_2_3576)">
<path fill-rule="evenodd" clip-rule="evenodd" d="M960.063 649.465L1037.83 649.465L960.062 727.232L960.063 649.465Z" fill="#003F87"/>
<path d="M1041.81 726.732L1118.78 726.732C1118.78 699.149 1104.2 674.969 1082.32 661.432C1081.71 661.05 1081.1 660.687 1080.48 660.334C1069.68 654.056 1057.21 650.328 1043.89 649.975L1043.85 649.975C1043.17 649.965 1042.48 649.956 1041.81 649.956L1041.81 726.742L1041.81 726.732Z" fill="#01AE9D"/>
<circle cx="36.2492" cy="36.2492" r="36.2492" transform="matrix(1 8.74228e-08 8.74228e-08 -1 1122.75 724.598)" fill="#FCC400"/>
<path fill-rule="evenodd" clip-rule="evenodd" d="M1203.2 649.465L1280.97 649.465L1203.2 727.232L1203.2 649.465Z" fill="#003F87"/>
<path d="M1284.95 726.732L1361.92 726.732C1361.92 699.149 1347.35 674.969 1325.46 661.432C1324.85 661.05 1324.24 660.687 1323.62 660.334C1312.82 654.056 1300.35 650.328 1287.03 649.975L1286.99 649.975C1286.31 649.965 1285.62 649.956 1284.95 649.956L1284.95 726.742L1284.95 726.732Z" fill="#01AE9D"/>
<circle cx="36.2492" cy="36.2492" r="36.2492" transform="matrix(1 8.74228e-08 8.74228e-08 -1 1365.89 724.598)" fill="#FCC400"/>
<path d="M1442.37 804.502L1365.4 804.502C1365.4 776.918 1379.97 752.739 1401.86 739.202C1402.47 738.819 1403.07 738.456 1403.69 738.103C1414.49 731.825 1426.96 728.098 1440.28 727.745L1440.32 727.745C1441 727.735 1441.69 727.725 1442.37 727.725L1442.37 804.512L1442.37 804.502Z" fill="#003F87"/>
<path fill-rule="evenodd" clip-rule="evenodd" d="M1361.42 727.235L1283.65 727.235L1361.42 805.002L1361.42 727.235Z" fill="#FCC400"/>
<circle cx="1243.43" cy="766.118" r="36.2492" transform="rotate(-180 1243.43 766.118)" fill="#01AE9D"/>
<path d="M1199.23 804.502L1122.25 804.502C1122.25 776.918 1136.83 752.739 1158.72 739.202C1159.32 738.819 1159.93 738.456 1160.55 738.103C1171.35 731.825 1183.82 728.098 1197.14 727.745L1197.18 727.745C1197.86 727.735 1198.55 727.725 1199.23 727.725L1199.23 804.512L1199.23 804.502Z" fill="#003F87"/>
<path fill-rule="evenodd" clip-rule="evenodd" d="M1118.28 727.235L1040.51 727.235L1118.28 805.002L1118.28 727.235Z" fill="#FCC400"/>
<circle cx="1000.29" cy="766.118" r="36.2492" transform="rotate(-180 1000.29 766.118)" fill="#01AE9D"/>
</g>
<g opacity="0.02" clip-path="url(#clip23_2_3576)">
<path fill-rule="evenodd" clip-rule="evenodd" d="M960.063 923.465L1037.83 923.465L960.062 1001.23L960.063 923.465Z" fill="#003F87"/>
<path d="M1041.81 1000.73L1118.78 1000.73C1118.78 973.149 1104.2 948.969 1082.32 935.432C1081.71 935.05 1081.1 934.687 1080.48 934.334C1069.68 928.056 1057.21 924.328 1043.89 923.975L1043.85 923.975C1043.17 923.965 1042.48 923.956 1041.81 923.956L1041.81 1000.74L1041.81 1000.73Z" fill="#01AE9D"/>
<circle cx="36.2492" cy="36.2492" r="36.2492" transform="matrix(1 8.74228e-08 8.74228e-08 -1 1122.75 998.598)" fill="#FCC400"/>
<path fill-rule="evenodd" clip-rule="evenodd" d="M1203.2 923.465L1280.97 923.465L1203.2 1001.23L1203.2 923.465Z" fill="#003F87"/>
<path d="M1284.95 1000.73L1361.92 1000.73C1361.92 973.149 1347.35 948.969 1325.46 935.432C1324.85 935.05 1324.24 934.687 1323.62 934.334C1312.82 928.056 1300.35 924.328 1287.03 923.975L1286.99 923.975C1286.31 923.965 1285.62 923.956 1284.95 923.956L1284.95 1000.74L1284.95 1000.73Z" fill="#01AE9D"/>
<circle cx="36.2492" cy="36.2492" r="36.2492" transform="matrix(1 8.74228e-08 8.74228e-08 -1 1365.89 998.598)" fill="#FCC400"/>
<path d="M1442.37 1078.5L1365.4 1078.5C1365.4 1050.92 1379.97 1026.74 1401.86 1013.2C1402.47 1012.82 1403.07 1012.46 1403.69 1012.1C1414.49 1005.83 1426.96 1002.1 1440.28 1001.74L1440.32 1001.74C1441 1001.74 1441.69 1001.73 1442.37 1001.73L1442.37 1078.51L1442.37 1078.5Z" fill="#003F87"/>
<path fill-rule="evenodd" clip-rule="evenodd" d="M1361.42 1001.23L1283.65 1001.23L1361.42 1079L1361.42 1001.23Z" fill="#FCC400"/>
<circle cx="1243.43" cy="1040.12" r="36.2492" transform="rotate(-180 1243.43 1040.12)" fill="#01AE9D"/>
<path d="M1199.23 1078.5L1122.25 1078.5C1122.25 1050.92 1136.83 1026.74 1158.72 1013.2C1159.32 1012.82 1159.93 1012.46 1160.55 1012.1C1171.35 1005.83 1183.82 1002.1 1197.14 1001.74L1197.18 1001.74C1197.86 1001.74 1198.55 1001.73 1199.23 1001.73L1199.23 1078.51L1199.23 1078.5Z" fill="#003F87"/>
<path fill-rule="evenodd" clip-rule="evenodd" d="M1118.28 1001.23L1040.51 1001.23L1118.28 1079L1118.28 1001.23Z" fill="#FCC400"/>
<circle cx="1000.29" cy="1040.12" r="36.2492" transform="rotate(-180 1000.29 1040.12)" fill="#01AE9D"/>
</g>
<g opacity="0.02" clip-path="url(#clip24_2_3576)">
<path fill-rule="evenodd" clip-rule="evenodd" d="M1450.06 -17.5346L1527.83 -17.5346L1450.06 60.2324L1450.06 -17.5346Z" fill="#003F87"/>
<path d="M1531.81 59.7324L1608.78 59.7324C1608.78 32.1489 1594.21 7.96916 1572.32 -5.56756C1571.71 -5.95012 1571.1 -6.31305 1570.48 -6.66619C1559.68 -12.9441 1547.21 -16.6716 1533.89 -17.0247L1533.85 -17.0247C1533.17 -17.0345 1532.48 -17.0443 1531.81 -17.0443L1531.81 59.7422L1531.81 59.7324Z" fill="#01AE9D"/>
<circle cx="36.2492" cy="36.2492" r="36.2492" transform="matrix(1 8.74228e-08 8.74228e-08 -1 1612.75 57.5977)" fill="#FCC400"/>
<path fill-rule="evenodd" clip-rule="evenodd" d="M1693.2 -17.5346L1770.97 -17.5346L1693.2 60.2324L1693.2 -17.5346Z" fill="#003F87"/>
<path d="M1774.95 59.7324L1851.92 59.7324C1851.92 32.1489 1837.35 7.96916 1815.46 -5.56756C1814.85 -5.95012 1814.24 -6.31305 1813.62 -6.66619C1802.82 -12.9441 1790.35 -16.6716 1777.03 -17.0247L1776.99 -17.0247C1776.31 -17.0345 1775.62 -17.0443 1774.95 -17.0443L1774.95 59.7422L1774.95 59.7324Z" fill="#01AE9D"/>
<circle cx="36.2492" cy="36.2492" r="36.2492" transform="matrix(1 8.74228e-08 8.74228e-08 -1 1855.89 57.5977)" fill="#FCC400"/>
<path d="M1932.37 137.502L1855.4 137.502C1855.4 109.918 1869.97 85.7387 1891.86 72.202C1892.47 71.8194 1893.07 71.4565 1893.69 71.1033C1904.49 64.8254 1916.96 61.0979 1930.28 60.7448L1930.32 60.7448C1931 60.735 1931.69 60.7252 1932.37 60.7252L1932.37 137.512L1932.37 137.502Z" fill="#003F87"/>
<path fill-rule="evenodd" clip-rule="evenodd" d="M1851.42 60.2349L1773.65 60.2349L1851.42 138.002L1851.42 60.2349Z" fill="#FCC400"/>
<circle cx="1733.43" cy="99.118" r="36.2492" transform="rotate(-180 1733.43 99.118)" fill="#01AE9D"/>
<path d="M1689.23 137.502L1612.25 137.502C1612.25 109.918 1626.83 85.7387 1648.72 72.202C1649.32 71.8194 1649.93 71.4565 1650.55 71.1033C1661.35 64.8254 1673.82 61.0979 1687.14 60.7448L1687.18 60.7448C1687.86 60.735 1688.55 60.7252 1689.23 60.7252L1689.23 137.512L1689.23 137.502Z" fill="#003F87"/>
<path fill-rule="evenodd" clip-rule="evenodd" d="M1608.28 60.2349L1530.51 60.2349L1608.28 138.002L1608.28 60.2349Z" fill="#FCC400"/>
<circle cx="1490.29" cy="99.118" r="36.2492" transform="rotate(-180 1490.29 99.118)" fill="#01AE9D"/>
</g>
<g opacity="0.02" clip-path="url(#clip25_2_3576)">
<path fill-rule="evenodd" clip-rule="evenodd" d="M1450.06 256.465L1527.83 256.465L1450.06 334.232L1450.06 256.465Z" fill="#003F87"/>
<path d="M1531.81 333.732L1608.78 333.732C1608.78 306.149 1594.21 281.969 1572.32 268.432C1571.71 268.05 1571.1 267.687 1570.48 267.334C1559.68 261.056 1547.21 257.328 1533.89 256.975L1533.85 256.975C1533.17 256.965 1532.48 256.956 1531.81 256.956L1531.81 333.742L1531.81 333.732Z" fill="#01AE9D"/>
<circle cx="36.2492" cy="36.2492" r="36.2492" transform="matrix(1 8.74228e-08 8.74228e-08 -1 1612.75 331.598)" fill="#FCC400"/>
<path fill-rule="evenodd" clip-rule="evenodd" d="M1693.2 256.465L1770.97 256.465L1693.2 334.232L1693.2 256.465Z" fill="#003F87"/>
<path d="M1774.95 333.732L1851.92 333.732C1851.92 306.149 1837.35 281.969 1815.46 268.432C1814.85 268.05 1814.24 267.687 1813.62 267.334C1802.82 261.056 1790.35 257.328 1777.03 256.975L1776.99 256.975C1776.31 256.965 1775.62 256.956 1774.95 256.956L1774.95 333.742L1774.95 333.732Z" fill="#01AE9D"/>
<circle cx="36.2492" cy="36.2492" r="36.2492" transform="matrix(1 8.74228e-08 8.74228e-08 -1 1855.89 331.598)" fill="#FCC400"/>
<path d="M1932.37 411.502L1855.4 411.502C1855.4 383.918 1869.97 359.739 1891.86 346.202C1892.47 345.819 1893.07 345.456 1893.69 345.103C1904.49 338.825 1916.96 335.098 1930.28 334.745L1930.32 334.745C1931 334.735 1931.69 334.725 1932.37 334.725L1932.37 411.512L1932.37 411.502Z" fill="#003F87"/>
<path fill-rule="evenodd" clip-rule="evenodd" d="M1851.42 334.235L1773.65 334.235L1851.42 412.002L1851.42 334.235Z" fill="#FCC400"/>
<circle cx="1733.43" cy="373.118" r="36.2492" transform="rotate(-180 1733.43 373.118)" fill="#01AE9D"/>
<path d="M1689.23 411.502L1612.25 411.502C1612.25 383.918 1626.83 359.739 1648.72 346.202C1649.32 345.819 1649.93 345.456 1650.55 345.103C1661.35 338.825 1673.82 335.098 1687.14 334.745L1687.18 334.745C1687.86 334.735 1688.55 334.725 1689.23 334.725L1689.23 411.512L1689.23 411.502Z" fill="#003F87"/>
<path fill-rule="evenodd" clip-rule="evenodd" d="M1608.28 334.235L1530.51 334.235L1608.28 412.002L1608.28 334.235Z" fill="#FCC400"/>
<circle cx="1490.29" cy="373.118" r="36.2492" transform="rotate(-180 1490.29 373.118)" fill="#01AE9D"/>
</g>
<g opacity="0.02" clip-path="url(#clip26_2_3576)">
<path fill-rule="evenodd" clip-rule="evenodd" d="M1450.06 530.465L1527.83 530.465L1450.06 608.232L1450.06 530.465Z" fill="#003F87"/>
<path d="M1531.81 607.732L1608.78 607.732C1608.78 580.149 1594.21 555.969 1572.32 542.432C1571.71 542.05 1571.1 541.687 1570.48 541.334C1559.68 535.056 1547.21 531.328 1533.89 530.975L1533.85 530.975C1533.17 530.965 1532.48 530.956 1531.81 530.956L1531.81 607.742L1531.81 607.732Z" fill="#01AE9D"/>
<circle cx="36.2492" cy="36.2492" r="36.2492" transform="matrix(1 8.74228e-08 8.74228e-08 -1 1612.75 605.598)" fill="#FCC400"/>
<path fill-rule="evenodd" clip-rule="evenodd" d="M1693.2 530.465L1770.97 530.465L1693.2 608.232L1693.2 530.465Z" fill="#003F87"/>
<path d="M1774.95 607.732L1851.92 607.732C1851.92 580.149 1837.35 555.969 1815.46 542.432C1814.85 542.05 1814.24 541.687 1813.62 541.334C1802.82 535.056 1790.35 531.328 1777.03 530.975L1776.99 530.975C1776.31 530.965 1775.62 530.956 1774.95 530.956L1774.95 607.742L1774.95 607.732Z" fill="#01AE9D"/>
<circle cx="36.2492" cy="36.2492" r="36.2492" transform="matrix(1 8.74228e-08 8.74228e-08 -1 1855.89 605.598)" fill="#FCC400"/>
<path d="M1932.37 685.502L1855.4 685.502C1855.4 657.918 1869.97 633.739 1891.86 620.202C1892.47 619.819 1893.07 619.456 1893.69 619.103C1904.49 612.825 1916.96 609.098 1930.28 608.745L1930.32 608.745C1931 608.735 1931.69 608.725 1932.37 608.725L1932.37 685.512L1932.37 685.502Z" fill="#003F87"/>
<path fill-rule="evenodd" clip-rule="evenodd" d="M1851.42 608.235L1773.65 608.235L1851.42 686.002L1851.42 608.235Z" fill="#FCC400"/>
<circle cx="1733.43" cy="647.118" r="36.2492" transform="rotate(-180 1733.43 647.118)" fill="#01AE9D"/>
<path d="M1689.23 685.502L1612.25 685.502C1612.25 657.918 1626.83 633.739 1648.72 620.202C1649.32 619.819 1649.93 619.456 1650.55 619.103C1661.35 612.825 1673.82 609.098 1687.14 608.745L1687.18 608.745C1687.86 608.735 1688.55 608.725 1689.23 608.725L1689.23 685.512L1689.23 685.502Z" fill="#003F87"/>
<path fill-rule="evenodd" clip-rule="evenodd" d="M1608.28 608.235L1530.51 608.235L1608.28 686.002L1608.28 608.235Z" fill="#FCC400"/>
<circle cx="1490.29" cy="647.118" r="36.2492" transform="rotate(-180 1490.29 647.118)" fill="#01AE9D"/>
</g>
<g opacity="0.02" clip-path="url(#clip27_2_3576)">
<path fill-rule="evenodd" clip-rule="evenodd" d="M1450.06 804.465L1527.83 804.465L1450.06 882.232L1450.06 804.465Z" fill="#003F87"/>
<path d="M1531.81 881.732L1608.78 881.732C1608.78 854.149 1594.21 829.969 1572.32 816.432C1571.71 816.05 1571.1 815.687 1570.48 815.334C1559.68 809.056 1547.21 805.328 1533.89 804.975L1533.85 804.975C1533.17 804.965 1532.48 804.956 1531.81 804.956L1531.81 881.742L1531.81 881.732Z" fill="#01AE9D"/>
<circle cx="36.2492" cy="36.2492" r="36.2492" transform="matrix(1 8.74228e-08 8.74228e-08 -1 1612.75 879.598)" fill="#FCC400"/>
<path fill-rule="evenodd" clip-rule="evenodd" d="M1693.2 804.465L1770.97 804.465L1693.2 882.232L1693.2 804.465Z" fill="#003F87"/>
<path d="M1774.95 881.732L1851.92 881.732C1851.92 854.149 1837.35 829.969 1815.46 816.432C1814.85 816.05 1814.24 815.687 1813.62 815.334C1802.82 809.056 1790.35 805.328 1777.03 804.975L1776.99 804.975C1776.31 804.965 1775.62 804.956 1774.95 804.956L1774.95 881.742L1774.95 881.732Z" fill="#01AE9D"/>
<circle cx="36.2492" cy="36.2492" r="36.2492" transform="matrix(1 8.74228e-08 8.74228e-08 -1 1855.89 879.598)" fill="#FCC400"/>
<path d="M1932.37 959.502L1855.4 959.502C1855.4 931.918 1869.97 907.739 1891.86 894.202C1892.47 893.819 1893.07 893.456 1893.69 893.103C1904.49 886.825 1916.96 883.098 1930.28 882.745L1930.32 882.745C1931 882.735 1931.69 882.725 1932.37 882.725L1932.37 959.512L1932.37 959.502Z" fill="#003F87"/>
<path fill-rule="evenodd" clip-rule="evenodd" d="M1851.42 882.235L1773.65 882.235L1851.42 960.002L1851.42 882.235Z" fill="#FCC400"/>
<circle cx="1733.43" cy="921.118" r="36.2492" transform="rotate(-180 1733.43 921.118)" fill="#01AE9D"/>
<path d="M1689.23 959.502L1612.25 959.502C1612.25 931.918 1626.83 907.739 1648.72 894.202C1649.32 893.819 1649.93 893.456 1650.55 893.103C1661.35 886.825 1673.82 883.098 1687.14 882.745L1687.18 882.745C1687.86 882.735 1688.55 882.725 1689.23 882.725L1689.23 959.512L1689.23 959.502Z" fill="#003F87"/>
<path fill-rule="evenodd" clip-rule="evenodd" d="M1608.28 882.235L1530.51 882.235L1608.28 960.002L1608.28 882.235Z" fill="#FCC400"/>
<circle cx="1490.29" cy="921.118" r="36.2492" transform="rotate(-180 1490.29 921.118)" fill="#01AE9D"/>
</g>
<g opacity="0.02" clip-path="url(#clip28_2_3576)">
<path fill-rule="evenodd" clip-rule="evenodd" d="M960.063 -17.5346L1037.83 -17.5346L960.062 60.2324L960.063 -17.5346Z" fill="#003F87"/>
<path d="M1041.81 59.7324L1118.78 59.7324C1118.78 32.1489 1104.2 7.96916 1082.32 -5.56756C1081.71 -5.95012 1081.1 -6.31305 1080.48 -6.66619C1069.68 -12.9441 1057.21 -16.6716 1043.89 -17.0247L1043.85 -17.0247C1043.17 -17.0345 1042.48 -17.0443 1041.81 -17.0443L1041.81 59.7422L1041.81 59.7324Z" fill="#01AE9D"/>
<circle cx="36.2492" cy="36.2492" r="36.2492" transform="matrix(1 8.74228e-08 8.74228e-08 -1 1122.75 57.5977)" fill="#FCC400"/>
<path fill-rule="evenodd" clip-rule="evenodd" d="M1203.2 -17.5346L1280.97 -17.5346L1203.2 60.2324L1203.2 -17.5346Z" fill="#003F87"/>
<path d="M1284.95 59.7324L1361.92 59.7324C1361.92 32.1489 1347.35 7.96916 1325.46 -5.56756C1324.85 -5.95012 1324.24 -6.31305 1323.62 -6.66619C1312.82 -12.9441 1300.35 -16.6716 1287.03 -17.0247L1286.99 -17.0247C1286.31 -17.0345 1285.62 -17.0443 1284.95 -17.0443L1284.95 59.7422L1284.95 59.7324Z" fill="#01AE9D"/>
<circle cx="36.2492" cy="36.2492" r="36.2492" transform="matrix(1 8.74228e-08 8.74228e-08 -1 1365.89 57.5977)" fill="#FCC400"/>
<path d="M1442.37 137.502L1365.4 137.502C1365.4 109.918 1379.97 85.7387 1401.86 72.202C1402.47 71.8194 1403.07 71.4565 1403.69 71.1033C1414.49 64.8254 1426.96 61.0979 1440.28 60.7448L1440.32 60.7448C1441 60.735 1441.69 60.7252 1442.37 60.7252L1442.37 137.512L1442.37 137.502Z" fill="#003F87"/>
<path fill-rule="evenodd" clip-rule="evenodd" d="M1361.42 60.2349L1283.65 60.2349L1361.42 138.002L1361.42 60.2349Z" fill="#FCC400"/>
<circle cx="1243.43" cy="99.118" r="36.2492" transform="rotate(-180 1243.43 99.118)" fill="#01AE9D"/>
<path d="M1199.23 137.502L1122.25 137.502C1122.25 109.918 1136.83 85.7387 1158.72 72.202C1159.32 71.8194 1159.93 71.4565 1160.55 71.1033C1171.35 64.8254 1183.82 61.0979 1197.14 60.7448L1197.18 60.7448C1197.86 60.735 1198.55 60.7252 1199.23 60.7252L1199.23 137.512L1199.23 137.502Z" fill="#003F87"/>
<path fill-rule="evenodd" clip-rule="evenodd" d="M1118.28 60.2349L1040.51 60.2349L1118.28 138.002L1118.28 60.2349Z" fill="#FCC400"/>
<circle cx="1000.29" cy="99.118" r="36.2492" transform="rotate(-180 1000.29 99.118)" fill="#01AE9D"/>
</g>
<g opacity="0.02" clip-path="url(#clip29_2_3576)">
<path fill-rule="evenodd" clip-rule="evenodd" d="M960.063 256.465L1037.83 256.465L960.062 334.232L960.063 256.465Z" fill="#003F87"/>
<path d="M1041.81 333.732L1118.78 333.732C1118.78 306.149 1104.2 281.969 1082.32 268.432C1081.71 268.05 1081.1 267.687 1080.48 267.334C1069.68 261.056 1057.21 257.328 1043.89 256.975L1043.85 256.975C1043.17 256.965 1042.48 256.956 1041.81 256.956L1041.81 333.742L1041.81 333.732Z" fill="#01AE9D"/>
<circle cx="36.2492" cy="36.2492" r="36.2492" transform="matrix(1 8.74228e-08 8.74228e-08 -1 1122.75 331.598)" fill="#FCC400"/>
<path fill-rule="evenodd" clip-rule="evenodd" d="M1203.2 256.465L1280.97 256.465L1203.2 334.232L1203.2 256.465Z" fill="#003F87"/>
<path d="M1284.95 333.732L1361.92 333.732C1361.92 306.149 1347.35 281.969 1325.46 268.432C1324.85 268.05 1324.24 267.687 1323.62 267.334C1312.82 261.056 1300.35 257.328 1287.03 256.975L1286.99 256.975C1286.31 256.965 1285.62 256.956 1284.95 256.956L1284.95 333.742L1284.95 333.732Z" fill="#01AE9D"/>
<circle cx="36.2492" cy="36.2492" r="36.2492" transform="matrix(1 8.74228e-08 8.74228e-08 -1 1365.89 331.598)" fill="#FCC400"/>
<path d="M1442.37 411.502L1365.4 411.502C1365.4 383.918 1379.97 359.739 1401.86 346.202C1402.47 345.819 1403.07 345.456 1403.69 345.103C1414.49 338.825 1426.96 335.098 1440.28 334.745L1440.32 334.745C1441 334.735 1441.69 334.725 1442.37 334.725L1442.37 411.512L1442.37 411.502Z" fill="#003F87"/>
<path fill-rule="evenodd" clip-rule="evenodd" d="M1361.42 334.235L1283.65 334.235L1361.42 412.002L1361.42 334.235Z" fill="#FCC400"/>
<circle cx="1243.43" cy="373.118" r="36.2492" transform="rotate(-180 1243.43 373.118)" fill="#01AE9D"/>
<path d="M1199.23 411.502L1122.25 411.502C1122.25 383.918 1136.83 359.739 1158.72 346.202C1159.32 345.819 1159.93 345.456 1160.55 345.103C1171.35 338.825 1183.82 335.098 1197.14 334.745L1197.18 334.745C1197.86 334.735 1198.55 334.725 1199.23 334.725L1199.23 411.512L1199.23 411.502Z" fill="#003F87"/>
<path fill-rule="evenodd" clip-rule="evenodd" d="M1118.28 334.235L1040.51 334.235L1118.28 412.002L1118.28 334.235Z" fill="#FCC400"/>
<circle cx="1000.29" cy="373.118" r="36.2492" transform="rotate(-180 1000.29 373.118)" fill="#01AE9D"/>
</g>
<g opacity="0.02" clip-path="url(#clip30_2_3576)">
<path fill-rule="evenodd" clip-rule="evenodd" d="M960.063 530.465L1037.83 530.465L960.062 608.232L960.063 530.465Z" fill="#003F87"/>
<path d="M1041.81 607.732L1118.78 607.732C1118.78 580.149 1104.2 555.969 1082.32 542.432C1081.71 542.05 1081.1 541.687 1080.48 541.334C1069.68 535.056 1057.21 531.328 1043.89 530.975L1043.85 530.975C1043.17 530.965 1042.48 530.956 1041.81 530.956L1041.81 607.742L1041.81 607.732Z" fill="#01AE9D"/>
<circle cx="36.2492" cy="36.2492" r="36.2492" transform="matrix(1 8.74228e-08 8.74228e-08 -1 1122.75 605.598)" fill="#FCC400"/>
<path fill-rule="evenodd" clip-rule="evenodd" d="M1203.2 530.465L1280.97 530.465L1203.2 608.232L1203.2 530.465Z" fill="#003F87"/>
<path d="M1284.95 607.732L1361.92 607.732C1361.92 580.149 1347.35 555.969 1325.46 542.432C1324.85 542.05 1324.24 541.687 1323.62 541.334C1312.82 535.056 1300.35 531.328 1287.03 530.975L1286.99 530.975C1286.31 530.965 1285.62 530.956 1284.95 530.956L1284.95 607.742L1284.95 607.732Z" fill="#01AE9D"/>
<circle cx="36.2492" cy="36.2492" r="36.2492" transform="matrix(1 8.74228e-08 8.74228e-08 -1 1365.89 605.598)" fill="#FCC400"/>
<path d="M1442.37 685.502L1365.4 685.502C1365.4 657.918 1379.97 633.739 1401.86 620.202C1402.47 619.819 1403.07 619.456 1403.69 619.103C1414.49 612.825 1426.96 609.098 1440.28 608.745L1440.32 608.745C1441 608.735 1441.69 608.725 1442.37 608.725L1442.37 685.512L1442.37 685.502Z" fill="#003F87"/>
<path fill-rule="evenodd" clip-rule="evenodd" d="M1361.42 608.235L1283.65 608.235L1361.42 686.002L1361.42 608.235Z" fill="#FCC400"/>
<circle cx="1243.43" cy="647.118" r="36.2492" transform="rotate(-180 1243.43 647.118)" fill="#01AE9D"/>
<path d="M1199.23 685.502L1122.25 685.502C1122.25 657.918 1136.83 633.739 1158.72 620.202C1159.32 619.819 1159.93 619.456 1160.55 619.103C1171.35 612.825 1183.82 609.098 1197.14 608.745L1197.18 608.745C1197.86 608.735 1198.55 608.725 1199.23 608.725L1199.23 685.512L1199.23 685.502Z" fill="#003F87"/>
<path fill-rule="evenodd" clip-rule="evenodd" d="M1118.28 608.235L1040.51 608.235L1118.28 686.002L1118.28 608.235Z" fill="#FCC400"/>
<circle cx="1000.29" cy="647.118" r="36.2492" transform="rotate(-180 1000.29 647.118)" fill="#01AE9D"/>
</g>
<g opacity="0.02" clip-path="url(#clip31_2_3576)">
<path fill-rule="evenodd" clip-rule="evenodd" d="M960.063 804.465L1037.83 804.465L960.062 882.232L960.063 804.465Z" fill="#003F87"/>
<path d="M1041.81 881.732L1118.78 881.732C1118.78 854.149 1104.2 829.969 1082.32 816.432C1081.71 816.05 1081.1 815.687 1080.48 815.334C1069.68 809.056 1057.21 805.328 1043.89 804.975L1043.85 804.975C1043.17 804.965 1042.48 804.956 1041.81 804.956L1041.81 881.742L1041.81 881.732Z" fill="#01AE9D"/>
<circle cx="36.2492" cy="36.2492" r="36.2492" transform="matrix(1 8.74228e-08 8.74228e-08 -1 1122.75 879.598)" fill="#FCC400"/>
<path fill-rule="evenodd" clip-rule="evenodd" d="M1203.2 804.465L1280.97 804.465L1203.2 882.232L1203.2 804.465Z" fill="#003F87"/>
<path d="M1284.95 881.732L1361.92 881.732C1361.92 854.149 1347.35 829.969 1325.46 816.432C1324.85 816.05 1324.24 815.687 1323.62 815.334C1312.82 809.056 1300.35 805.328 1287.03 804.975L1286.99 804.975C1286.31 804.965 1285.62 804.956 1284.95 804.956L1284.95 881.742L1284.95 881.732Z" fill="#01AE9D"/>
<circle cx="36.2492" cy="36.2492" r="36.2492" transform="matrix(1 8.74228e-08 8.74228e-08 -1 1365.89 879.598)" fill="#FCC400"/>
<path d="M1442.37 959.502L1365.4 959.502C1365.4 931.918 1379.97 907.739 1401.86 894.202C1402.47 893.819 1403.07 893.456 1403.69 893.103C1414.49 886.825 1426.96 883.098 1440.28 882.745L1440.32 882.745C1441 882.735 1441.69 882.725 1442.37 882.725L1442.37 959.512L1442.37 959.502Z" fill="#003F87"/>
<path fill-rule="evenodd" clip-rule="evenodd" d="M1361.42 882.235L1283.65 882.235L1361.42 960.002L1361.42 882.235Z" fill="#FCC400"/>
<circle cx="1243.43" cy="921.118" r="36.2492" transform="rotate(-180 1243.43 921.118)" fill="#01AE9D"/>
<path d="M1199.23 959.502L1122.25 959.502C1122.25 931.918 1136.83 907.739 1158.72 894.202C1159.32 893.819 1159.93 893.456 1160.55 893.103C1171.35 886.825 1183.82 883.098 1197.14 882.745L1197.18 882.745C1197.86 882.735 1198.55 882.725 1199.23 882.725L1199.23 959.512L1199.23 959.502Z" fill="#003F87"/>
<path fill-rule="evenodd" clip-rule="evenodd" d="M1118.28 882.235L1040.51 882.235L1118.28 960.002L1118.28 882.235Z" fill="#FCC400"/>
<circle cx="1000.29" cy="921.118" r="36.2492" transform="rotate(-180 1000.29 921.118)" fill="#01AE9D"/>
</g>
<defs>
<clipPath id="clip0_2_3576">
<rect width="483" height="157" fill="white" transform="translate(470 961) rotate(-180)"/>
</clipPath>
<clipPath id="clip1_2_3576">
<rect width="483" height="157" fill="white" transform="translate(470 687) rotate(-180)"/>
</clipPath>
<clipPath id="clip2_2_3576">
<rect width="483" height="157" fill="white" transform="translate(470 413) rotate(-180)"/>
</clipPath>
<clipPath id="clip3_2_3576">
<rect width="483" height="157" fill="white" transform="translate(470 139) rotate(-180)"/>
</clipPath>
<clipPath id="clip4_2_3576">
<rect width="483" height="157" fill="white" transform="translate(960 961) rotate(-180)"/>
</clipPath>
<clipPath id="clip5_2_3576">
<rect width="483" height="157" fill="white" transform="translate(960 687) rotate(-180)"/>
</clipPath>
<clipPath id="clip6_2_3576">
<rect width="483" height="157" fill="white" transform="translate(960 413) rotate(-180)"/>
</clipPath>
<clipPath id="clip7_2_3576">
<rect width="483" height="157" fill="white" transform="translate(960 139) rotate(-180)"/>
</clipPath>
<clipPath id="clip8_2_3576">
<rect width="483" height="157" fill="white" transform="translate(470 1080) rotate(-180)"/>
</clipPath>
<clipPath id="clip9_2_3576">
<rect width="483" height="157" fill="white" transform="translate(470 806) rotate(-180)"/>
</clipPath>
<clipPath id="clip10_2_3576">
<rect width="483" height="157" fill="white" transform="translate(470 532) rotate(-180)"/>
</clipPath>
<clipPath id="clip11_2_3576">
<rect width="483" height="157" fill="white" transform="translate(470 258) rotate(-180)"/>
</clipPath>
<clipPath id="clip12_2_3576">
<rect width="483" height="157" fill="white" transform="translate(960 1080) rotate(-180)"/>
</clipPath>
<clipPath id="clip13_2_3576">
<rect width="483" height="157" fill="white" transform="translate(960 806) rotate(-180)"/>
</clipPath>
<clipPath id="clip14_2_3576">
<rect width="483" height="157" fill="white" transform="translate(960 532) rotate(-180)"/>
</clipPath>
<clipPath id="clip15_2_3576">
<rect width="483" height="157" fill="white" transform="translate(960 258) rotate(-180)"/>
</clipPath>
<clipPath id="clip16_2_3576">
<rect width="483" height="157" fill="white" transform="translate(1450 101)"/>
</clipPath>
<clipPath id="clip17_2_3576">
<rect width="483" height="157" fill="white" transform="translate(1450 375)"/>
</clipPath>
<clipPath id="clip18_2_3576">
<rect width="483" height="157" fill="white" transform="translate(1450 649)"/>
</clipPath>
<clipPath id="clip19_2_3576">
<rect width="483" height="157" fill="white" transform="translate(1450 923)"/>
</clipPath>
<clipPath id="clip20_2_3576">
<rect width="483" height="157" fill="white" transform="translate(960 101)"/>
</clipPath>
<clipPath id="clip21_2_3576">
<rect width="483" height="157" fill="white" transform="translate(960 375)"/>
</clipPath>
<clipPath id="clip22_2_3576">
<rect width="483" height="157" fill="white" transform="translate(960 649)"/>
</clipPath>
<clipPath id="clip23_2_3576">
<rect width="483" height="157" fill="white" transform="translate(960 923)"/>
</clipPath>
<clipPath id="clip24_2_3576">
<rect width="483" height="157" fill="white" transform="translate(1450 -18)"/>
</clipPath>
<clipPath id="clip25_2_3576">
<rect width="483" height="157" fill="white" transform="translate(1450 256)"/>
</clipPath>
<clipPath id="clip26_2_3576">
<rect width="483" height="157" fill="white" transform="translate(1450 530)"/>
</clipPath>
<clipPath id="clip27_2_3576">
<rect width="483" height="157" fill="white" transform="translate(1450 804)"/>
</clipPath>
<clipPath id="clip28_2_3576">
<rect width="483" height="157" fill="white" transform="translate(960 -18)"/>
</clipPath>
<clipPath id="clip29_2_3576">
<rect width="483" height="157" fill="white" transform="translate(960 256)"/>
</clipPath>
<clipPath id="clip30_2_3576">
<rect width="483" height="157" fill="white" transform="translate(960 530)"/>
</clipPath>
<clipPath id="clip31_2_3576">
<rect width="483" height="157" fill="white" transform="translate(960 804)"/>
</clipPath>
</defs>
</svg>
