<svg width="1920" height="1120" viewBox="0 0 1920 1120" fill="none" xmlns="http://www.w3.org/2000/svg">
<g opacity="0.02" clip-path="url(#clip0_2_4245)">
<path fill-rule="evenodd" clip-rule="evenodd" d="M1016.92 114.449L1016.92 276.582L854.789 114.449L1016.92 114.449Z" fill="#003F87"/>
<path d="M855.832 284.871L855.832 445.346C913.339 445.346 963.751 414.965 991.973 369.331C992.77 368.06 993.527 366.789 994.263 365.498C1007.35 342.989 1015.12 316.994 1015.86 289.217L1015.86 289.135C1015.88 287.72 1015.9 286.285 1015.9 284.871L855.811 284.871L855.832 284.871Z" fill="#01AE9D"/>
<circle cx="75.5744" cy="75.5744" r="75.5744" transform="matrix(-4.37114e-08 1 1 4.37114e-08 860.281 453.635)" fill="#FCC400"/>
<path fill-rule="evenodd" clip-rule="evenodd" d="M1016.92 621.361L1016.92 783.495L854.789 621.361L1016.92 621.361Z" fill="#003F87"/>
<path d="M855.832 791.784L855.832 952.259C913.339 952.259 963.751 921.878 991.973 876.244C992.77 874.973 993.527 873.702 994.263 872.411C1007.35 849.902 1015.12 823.907 1015.86 796.13L1015.86 796.048C1015.88 794.633 1015.9 793.198 1015.9 791.784L855.811 791.784L855.832 791.784Z" fill="#01AE9D"/>
<circle cx="75.5744" cy="75.5744" r="75.5744" transform="matrix(-4.37114e-08 1 1 4.37114e-08 860.281 960.548)" fill="#FCC400"/>
<path d="M693.699 1119.99L693.699 959.51C751.206 959.51 801.617 989.892 829.84 1035.53C830.637 1036.8 831.394 1038.07 832.13 1039.36C845.219 1061.87 852.99 1087.86 853.726 1115.64L853.726 1115.72C853.747 1117.14 853.767 1118.57 853.767 1119.99L693.678 1119.99L693.699 1119.99Z" fill="#003F87"/>
<path fill-rule="evenodd" clip-rule="evenodd" d="M854.789 951.222L854.789 789.089L692.656 951.222L854.789 951.222Z" fill="#FCC400"/>
<circle cx="773.722" cy="705.225" r="75.5744" transform="rotate(-90 773.722 705.225)" fill="#01AE9D"/>
<path d="M693.699 613.073L693.699 452.597C751.206 452.597 801.617 482.979 829.84 528.612C830.637 529.883 831.394 531.154 832.13 532.446C845.219 554.955 852.99 580.949 853.726 608.727L853.726 608.809C853.747 610.223 853.767 611.658 853.767 613.073L693.678 613.073L693.699 613.073Z" fill="#003F87"/>
<path fill-rule="evenodd" clip-rule="evenodd" d="M854.789 444.309L854.789 282.175L692.656 444.309L854.789 444.309Z" fill="#FCC400"/>
<circle cx="773.722" cy="198.312" r="75.5744" transform="rotate(-90 773.722 198.312)" fill="#01AE9D"/>
<path fill-rule="evenodd" clip-rule="evenodd" d="M692.656 114.449L692.656 276.582L530.523 114.449L692.656 114.449Z" fill="#FCC400"/>
<path d="M531.565 284.871L531.565 445.346C589.073 445.346 639.484 414.965 667.706 369.331C668.504 368.06 669.261 366.789 669.997 365.498C683.085 342.989 690.857 316.994 691.593 289.217L691.593 289.135C691.613 287.72 691.634 286.285 691.634 284.871L531.545 284.871L531.565 284.871Z" fill="#003F87"/>
<circle cx="75.5744" cy="75.5744" r="75.5744" transform="matrix(-4.37114e-08 1 1 4.37114e-08 536.015 453.635)" fill="#01AE9D"/>
<path fill-rule="evenodd" clip-rule="evenodd" d="M692.656 621.361L692.656 783.495L530.523 621.361L692.656 621.361Z" fill="#FCC400"/>
<path d="M531.565 791.784L531.565 952.259C589.073 952.259 639.484 921.878 667.706 876.244C668.504 874.973 669.261 873.702 669.997 872.411C683.085 849.902 690.857 823.907 691.593 796.13L691.593 796.048C691.613 794.633 691.634 793.198 691.634 791.784L531.545 791.784L531.565 791.784Z" fill="#003F87"/>
<circle cx="75.5744" cy="75.5744" r="75.5744" transform="matrix(-4.37114e-08 1 1 4.37114e-08 536.015 960.548)" fill="#01AE9D"/>
<circle cx="75.5744" cy="75.5744" r="75.5744" transform="matrix(4.37114e-08 -1 -1 -4.37114e-08 525.031 1119.99)" fill="#FCC400"/>
<path d="M529.48 952.259L529.48 791.784C471.972 791.784 421.561 822.165 393.339 867.799C392.541 869.07 391.785 870.341 391.049 871.632C377.96 894.141 370.189 920.135 369.453 947.913L369.453 947.995C369.432 949.41 369.412 950.845 369.412 952.259L529.5 952.259L529.48 952.259Z" fill="#01AE9D"/>
<path fill-rule="evenodd" clip-rule="evenodd" d="M368.39 783.495L368.39 621.362L530.523 783.495L368.39 783.495Z" fill="#003F87"/>
<circle cx="75.5744" cy="75.5744" r="75.5744" transform="matrix(4.37114e-08 -1 -1 -4.37114e-08 525.031 613.073)" fill="#FCC400"/>
<path d="M529.48 445.346L529.48 284.871C471.973 284.871 421.561 315.252 393.339 360.885C392.542 362.156 391.785 363.427 391.049 364.719C377.96 387.228 370.189 413.222 369.453 441L369.453 441.082C369.432 442.497 369.412 443.932 369.412 445.346L529.501 445.346L529.48 445.346Z" fill="#01AE9D"/>
<path fill-rule="evenodd" clip-rule="evenodd" d="M368.39 276.582L368.39 114.449L530.523 276.582L368.39 276.582Z" fill="#003F87"/>
<path fill-rule="evenodd" clip-rule="evenodd" d="M368.389 1119.99L368.389 957.853L206.256 1119.99L368.389 1119.99Z" fill="#003F87"/>
<path d="M207.299 949.564L207.299 789.089C264.807 789.089 315.218 819.47 343.44 865.103C344.237 866.374 344.994 867.645 345.73 868.937C358.819 891.446 366.59 917.44 367.326 945.218L367.326 945.3C367.347 946.714 367.367 948.149 367.367 949.564L207.278 949.564L207.299 949.564Z" fill="#FCC400"/>
<circle cx="287.323" cy="705.225" r="75.5744" transform="rotate(-90 287.323 705.225)" fill="#01AE9D"/>
<path d="M207.299 613.073L207.299 452.597C264.807 452.597 315.218 482.979 343.44 528.612C344.237 529.883 344.994 531.154 345.73 532.446C358.819 554.955 366.59 580.949 367.326 608.727L367.326 608.809C367.347 610.223 367.367 611.658 367.367 613.073L207.278 613.073L207.299 613.073Z" fill="#003F87"/>
<path fill-rule="evenodd" clip-rule="evenodd" d="M368.389 444.309L368.389 282.175L206.256 444.309L368.389 444.309Z" fill="#FCC400"/>
<circle cx="287.323" cy="198.312" r="75.5744" transform="rotate(-90 287.323 198.312)" fill="#01AE9D"/>
<circle cx="125.19" cy="1044.41" r="75.5744" transform="rotate(-90 125.19 1044.41)" fill="#FCC400"/>
<path fill-rule="evenodd" clip-rule="evenodd" d="M206.256 952.259L206.256 790.126L44.1231 952.259L206.256 952.259Z" fill="#003F87"/>
<path d="M45.1657 781.837L45.1657 621.362C102.673 621.362 153.085 651.743 181.307 697.377C182.104 698.648 182.861 699.919 183.597 701.21C196.686 723.719 204.457 749.714 205.193 777.491L205.193 777.573C205.214 778.988 205.234 780.423 205.234 781.837L45.1453 781.837L45.1657 781.837Z" fill="#FCC400"/>
<path fill-rule="evenodd" clip-rule="evenodd" d="M206.256 613.073L206.256 450.94L44.1231 613.073L206.256 613.073Z" fill="#01AE9D"/>
<circle cx="125.19" cy="367.077" r="75.5744" transform="rotate(-90 125.19 367.077)" fill="#003F87"/>
<path d="M45.1657 274.924L45.1657 114.449C102.673 114.449 153.085 144.83 181.307 190.464C182.104 191.735 182.861 193.006 183.597 194.297C196.686 216.806 204.457 242.801 205.193 270.578L205.193 270.66C205.214 272.075 205.234 273.51 205.234 274.924L45.1453 274.924L45.1657 274.924Z" fill="#FCC400"/>
<path fill-rule="evenodd" clip-rule="evenodd" d="M-118.01 1119.99L-118.01 957.853L44.1231 1119.99L-118.01 1119.99Z" fill="#01AE9D"/>
<circle cx="-36.9435" cy="873.99" r="75.5744" transform="rotate(-90 -36.9435 873.99)" fill="#FCC400"/>
<path d="M-116.967 781.837L-116.967 621.362C-59.4598 621.362 -9.04856 651.743 19.1735 697.377C19.9711 698.648 20.7278 699.919 21.464 701.21C34.5525 723.719 42.3238 749.714 43.0601 777.491L43.0601 777.573C43.0805 778.988 43.101 780.423 43.101 781.837L-116.988 781.837L-116.967 781.837Z" fill="#003F87"/>
<circle cx="-36.9434" cy="537.498" r="75.5744" transform="rotate(-90 -36.9434 537.498)" fill="#FCC400"/>
<path fill-rule="evenodd" clip-rule="evenodd" d="M44.1231 445.346L44.1231 283.213L-118.01 445.346L44.1231 445.346Z" fill="#01AE9D"/>
<path d="M43.0806 274.924L43.0806 114.449C-14.4271 114.449 -64.8383 144.83 -93.0604 190.464C-93.858 191.735 -94.6147 193.006 -95.3509 194.297C-108.439 216.806 -116.211 242.801 -116.947 270.578L-116.947 270.66C-116.967 272.075 -116.988 273.51 -116.988 274.924L43.101 274.924L43.0806 274.924Z" fill="#003F87"/>
<path d="M1828.24 1119.99L1828.24 959.51C1885.75 959.51 1936.16 989.892 1964.38 1035.53C1965.18 1036.8 1965.94 1038.07 1966.67 1039.36C1979.76 1061.87 1987.53 1087.86 1988.27 1115.64L1988.27 1115.72C1988.29 1117.14 1988.31 1118.57 1988.31 1119.99L1828.22 1119.99L1828.24 1119.99Z" fill="#003F87"/>
<path fill-rule="evenodd" clip-rule="evenodd" d="M1989.33 951.222L1989.33 789.089L1827.2 951.222L1989.33 951.222Z" fill="#FCC400"/>
<circle cx="1908.26" cy="705.225" r="75.5744" transform="rotate(-90 1908.26 705.225)" fill="#01AE9D"/>
<path d="M1828.24 613.073L1828.24 452.597C1885.75 452.597 1936.16 482.979 1964.38 528.612C1965.18 529.883 1965.94 531.154 1966.67 532.446C1979.76 554.955 1987.53 580.949 1988.27 608.727L1988.27 608.809C1988.29 610.223 1988.31 611.658 1988.31 613.073L1828.22 613.073L1828.24 613.073Z" fill="#003F87"/>
<path fill-rule="evenodd" clip-rule="evenodd" d="M1989.33 444.309L1989.33 282.175L1827.2 444.309L1989.33 444.309Z" fill="#FCC400"/>
<circle cx="1908.26" cy="198.312" r="75.5744" transform="rotate(-90 1908.26 198.312)" fill="#01AE9D"/>
<path fill-rule="evenodd" clip-rule="evenodd" d="M1827.2 114.449L1827.2 276.582L1665.06 114.449L1827.2 114.449Z" fill="#FCC400"/>
<path d="M1666.11 284.871L1666.11 445.346C1723.61 445.346 1774.03 414.965 1802.25 369.331C1803.05 368.06 1803.8 366.789 1804.54 365.498C1817.63 342.989 1825.4 316.994 1826.13 289.217L1826.13 289.135C1826.15 287.72 1826.18 286.285 1826.18 284.871L1666.09 284.871L1666.11 284.871Z" fill="#003F87"/>
<circle cx="75.5744" cy="75.5744" r="75.5744" transform="matrix(-4.37114e-08 1 1 4.37114e-08 1670.56 453.635)" fill="#01AE9D"/>
<path fill-rule="evenodd" clip-rule="evenodd" d="M1827.2 621.361L1827.2 783.495L1665.06 621.361L1827.2 621.361Z" fill="#FCC400"/>
<path d="M1666.11 791.784L1666.11 952.259C1723.61 952.259 1774.03 921.878 1802.25 876.244C1803.05 874.973 1803.8 873.702 1804.54 872.411C1817.63 849.902 1825.4 823.907 1826.13 796.13L1826.13 796.048C1826.15 794.633 1826.18 793.198 1826.18 791.784L1666.09 791.784L1666.11 791.784Z" fill="#003F87"/>
<circle cx="75.5744" cy="75.5744" r="75.5744" transform="matrix(-4.37114e-08 1 1 4.37114e-08 1670.56 960.548)" fill="#01AE9D"/>
<circle cx="75.5744" cy="75.5744" r="75.5744" transform="matrix(4.37114e-08 -1 -1 -4.37114e-08 1659.57 1119.99)" fill="#FCC400"/>
<path d="M1664.02 952.259L1664.02 791.784C1606.51 791.784 1556.1 822.165 1527.88 867.799C1527.08 869.07 1526.33 870.341 1525.59 871.632C1512.5 894.141 1504.73 920.135 1503.99 947.913L1503.99 947.995C1503.97 949.41 1503.95 950.845 1503.95 952.259L1664.04 952.259L1664.02 952.259Z" fill="#01AE9D"/>
<path fill-rule="evenodd" clip-rule="evenodd" d="M1502.93 783.495L1502.93 621.362L1665.06 783.495L1502.93 783.495Z" fill="#003F87"/>
<circle cx="75.5744" cy="75.5744" r="75.5744" transform="matrix(4.37114e-08 -1 -1 -4.37114e-08 1659.57 613.073)" fill="#FCC400"/>
<path d="M1664.02 445.346L1664.02 284.871C1606.51 284.871 1556.1 315.252 1527.88 360.885C1527.08 362.156 1526.33 363.427 1525.59 364.719C1512.5 387.228 1504.73 413.222 1503.99 441L1503.99 441.082C1503.97 442.497 1503.95 443.932 1503.95 445.346L1664.04 445.346L1664.02 445.346Z" fill="#01AE9D"/>
<path fill-rule="evenodd" clip-rule="evenodd" d="M1502.93 276.582L1502.93 114.449L1665.06 276.582L1502.93 276.582Z" fill="#003F87"/>
<path fill-rule="evenodd" clip-rule="evenodd" d="M1502.93 1119.99L1502.93 957.853L1340.8 1119.99L1502.93 1119.99Z" fill="#003F87"/>
<path d="M1341.84 949.564L1341.84 789.089C1399.35 789.089 1449.76 819.47 1477.98 865.103C1478.78 866.374 1479.54 867.645 1480.27 868.937C1493.36 891.446 1501.13 917.44 1501.87 945.218L1501.87 945.3C1501.89 946.714 1501.91 948.149 1501.91 949.564L1341.82 949.564L1341.84 949.564Z" fill="#FCC400"/>
<circle cx="1421.86" cy="705.225" r="75.5744" transform="rotate(-90 1421.86 705.225)" fill="#01AE9D"/>
<path d="M1341.84 613.073L1341.84 452.597C1399.35 452.597 1449.76 482.979 1477.98 528.612C1478.78 529.883 1479.54 531.154 1480.27 532.446C1493.36 554.955 1501.13 580.949 1501.87 608.727L1501.87 608.809C1501.89 610.223 1501.91 611.658 1501.91 613.073L1341.82 613.073L1341.84 613.073Z" fill="#003F87"/>
<path fill-rule="evenodd" clip-rule="evenodd" d="M1502.93 444.309L1502.93 282.175L1340.8 444.309L1502.93 444.309Z" fill="#FCC400"/>
<circle cx="1421.86" cy="198.312" r="75.5744" transform="rotate(-90 1421.86 198.312)" fill="#01AE9D"/>
<circle cx="1259.73" cy="1044.41" r="75.5744" transform="rotate(-90 1259.73 1044.41)" fill="#FCC400"/>
<path fill-rule="evenodd" clip-rule="evenodd" d="M1340.8 952.259L1340.8 790.126L1178.66 952.259L1340.8 952.259Z" fill="#003F87"/>
<path d="M1179.71 781.837L1179.71 621.362C1237.22 621.362 1287.63 651.743 1315.85 697.377C1316.65 698.648 1317.4 699.919 1318.14 701.21C1331.23 723.719 1339 749.714 1339.73 777.491L1339.73 777.573C1339.76 778.988 1339.78 780.423 1339.78 781.837L1179.69 781.837L1179.71 781.837Z" fill="#FCC400"/>
<path fill-rule="evenodd" clip-rule="evenodd" d="M1340.8 613.073L1340.8 450.94L1178.66 613.073L1340.8 613.073Z" fill="#01AE9D"/>
<circle cx="1259.73" cy="367.077" r="75.5744" transform="rotate(-90 1259.73 367.077)" fill="#003F87"/>
<path d="M1179.71 274.924L1179.71 114.449C1237.22 114.449 1287.63 144.83 1315.85 190.464C1316.65 191.735 1317.4 193.006 1318.14 194.297C1331.23 216.806 1339 242.801 1339.73 270.578L1339.73 270.66C1339.76 272.075 1339.78 273.51 1339.78 274.924L1179.69 274.924L1179.71 274.924Z" fill="#FCC400"/>
<path fill-rule="evenodd" clip-rule="evenodd" d="M1016.53 1119.99L1016.53 957.853L1178.66 1119.99L1016.53 1119.99Z" fill="#01AE9D"/>
<circle cx="1097.6" cy="873.99" r="75.5744" transform="rotate(-90 1097.6 873.99)" fill="#FCC400"/>
<path d="M1017.57 781.837L1017.57 621.362C1075.08 621.362 1125.49 651.743 1153.72 697.377C1154.51 698.648 1155.27 699.919 1156.01 701.21C1169.09 723.719 1176.87 749.714 1177.6 777.491L1177.6 777.573C1177.62 778.988 1177.64 780.423 1177.64 781.837L1017.55 781.837L1017.57 781.837Z" fill="#003F87"/>
<circle cx="1097.6" cy="537.498" r="75.5744" transform="rotate(-90 1097.6 537.498)" fill="#FCC400"/>
<path fill-rule="evenodd" clip-rule="evenodd" d="M1178.66 445.346L1178.66 283.213L1016.53 445.346L1178.66 445.346Z" fill="#01AE9D"/>
<path d="M1177.62 274.924L1177.62 114.449C1120.11 114.449 1069.7 144.83 1041.48 190.464C1040.68 191.735 1039.93 193.006 1039.19 194.297C1026.1 216.806 1018.33 242.801 1017.59 270.578L1017.59 270.66C1017.57 272.075 1017.55 273.51 1017.55 274.924L1177.64 274.924L1177.62 274.924Z" fill="#003F87"/>
</g>
<defs>
<clipPath id="clip0_2_4245">
<rect width="2399" height="1119" fill="white" transform="translate(-247 0.98584)"/>
</clipPath>
</defs>
</svg>
