<svg width="46" height="45" viewBox="0 0 46 45" fill="none" xmlns="http://www.w3.org/2000/svg">
<rect x="8.2959" y="29.9927" width="29.4666" height="7.36666" fill="#003F87"/>
<rect x="11.979" y="15.2593" width="3.68333" height="14.7333" fill="#003F87"/>
<path d="M11.979 7.89251H21.457C21.8739 7.89251 22.2738 7.7269 22.5686 7.4321C22.8634 7.1373 23.2632 6.97168 23.6801 6.97168H34.079V18.0217H23.6801C23.2632 18.0217 22.8634 18.1873 22.5686 18.4821C22.2738 18.7769 21.8739 18.9425 21.457 18.9425H11.979V7.89251Z" fill="#003F87"/>
<path fill-rule="evenodd" clip-rule="evenodd" d="M34.0784 6.97168L34.0784 16.18L23.9492 6.97168L34.0784 6.97168Z" fill="#FCC400"/>
<path fill-rule="evenodd" clip-rule="evenodd" d="M22.1086 7.89258L23.0295 18.0217L11.9795 7.89258L22.1086 7.89258Z" fill="#FCC400"/>
<path fill-rule="evenodd" clip-rule="evenodd" d="M11.9788 18.9424L11.9788 9.73406L21.1875 18.9424L11.9788 18.9424Z" fill="#FCC400"/>
<path fill-rule="evenodd" clip-rule="evenodd" d="M24.8703 18.0215L24.8703 9.73399L34.0786 18.0215L24.8703 18.0215Z" fill="#FCC400"/>
</svg>
