<svg width="104" height="104" viewBox="0 0 104 104" fill="none" xmlns="http://www.w3.org/2000/svg">
<path d="M20.8694 20.417H80.6477V20.417C80.6477 33.521 83.6986 46.445 89.5589 58.1655L94.0136 67.075C98.3278 75.7033 100.574 85.2175 100.574 94.8643V100.121H39.5501V100.121C39.5501 86.9981 36.6627 74.0356 31.0928 62.153L29.3267 58.3853C23.7567 46.5028 20.8694 33.5402 20.8694 20.417V20.417Z" fill="#FCC400"/>
<path d="M27.0964 34.1162H39.5502M29.5872 46.57H71.9302M34.5687 57.7785H80.6478M39.5502 68.9869H54.4948" stroke="#003F87" stroke-width="2.49076" stroke-linecap="round" stroke-linejoin="round"/>
<path d="M37.3113 80.1953H98.7685L99.0319 81.2292C100.056 85.2494 100.574 89.3819 100.574 93.5306L100.574 100.121H39.5503V100.121C39.5503 93.4997 38.8177 86.8983 37.3658 80.4378L37.3113 80.1953Z" fill="#003F87"/>
</svg>
