<svg width="37" height="35" viewBox="0 0 37 35" fill="none" xmlns="http://www.w3.org/2000/svg">
<path d="M8.77104 34.7477V11.4821H1.03814V34.7477H8.77104ZM4.90611 8.30259C5.46065 8.35044 6.01909 8.28296 6.54627 8.10439C7.07345 7.92582 7.55795 7.64004 7.96927 7.26505C8.38058 6.89005 8.7098 6.43395 8.9362 5.92547C9.1626 5.417 9.28127 4.86715 9.28474 4.31056C9.28822 3.75397 9.17642 3.20269 8.95638 2.69143C8.73634 2.18017 8.41284 1.72 8.00623 1.3399C7.59963 0.959793 7.11873 0.66799 6.59382 0.48286C6.06891 0.29773 5.51136 0.223283 4.95626 0.264205C4.40388 0.216127 3.84753 0.282534 3.32199 0.459273C2.79644 0.636013 2.31302 0.919283 1.90194 1.29137C1.49087 1.66346 1.16098 2.11635 0.93292 2.62174C0.704856 3.12713 0.583519 3.67414 0.576495 4.22856C0.569472 4.78298 0.676914 5.33289 0.892102 5.84389C1.10729 6.3549 1.4256 6.81601 1.82712 7.19839C2.22863 7.58077 2.70473 7.87619 3.22562 8.06619C3.74652 8.25619 4.30101 8.33666 4.85443 8.30259H4.90611ZM13.0524 34.7477H20.7853V21.7546C20.7555 21.1163 20.8414 20.4778 21.0391 19.87C21.3285 19.0471 21.8651 18.3338 22.5754 17.8275C23.2857 17.3212 24.1351 17.0467 25.0074 17.0416C27.8054 17.0416 28.9255 19.1694 28.9255 22.3033V34.7507H36.6584V21.4066C36.6584 14.2634 32.8437 10.9349 27.7553 10.9349C26.3374 10.8779 24.9313 11.2138 23.6922 11.9055C22.4531 12.5971 21.4293 13.6177 20.7336 14.8546H20.7853V11.4806H13.0524C13.1542 13.6646 13.0524 34.7477 13.0524 34.7477Z" fill="#003F87"/>
</svg>
