<svg width="212" height="55" viewBox="0 0 212 55" fill="none" xmlns="http://www.w3.org/2000/svg">
<path d="M80.9092 43.7188L76.7381 54.7428H75.3329L71.8523 45.71L68.3716 54.7428H66.9665L62.8154 43.7188H64.2406L67.6972 53.0888L71.2381 43.7188H72.5147L76.0355 53.0888L79.5362 43.7188H80.8972H80.9092Z" fill="#003F87"/>
<path d="M92.439 49.6928H83.2174C83.3861 51.9972 85.1444 53.5267 87.5572 53.5267C88.8981 53.5267 90.0944 53.045 90.9295 52.0815L91.7685 53.045C90.785 54.2172 89.2514 54.8475 87.5131 54.8475C84.0766 54.8475 81.728 52.499 81.728 49.2311C81.728 45.9632 84.0123 43.6348 87.1116 43.6348C90.2109 43.6348 92.455 45.9191 92.455 49.2311C92.455 49.3556 92.435 49.5242 92.435 49.6928H92.439ZM83.2174 48.5807H91.0339C90.8452 46.4209 89.2715 44.9154 87.1156 44.9154C84.9598 44.9154 83.4061 46.4249 83.2174 48.5807Z" fill="#003F87"/>
<path d="M99.8818 49.2311C99.8818 45.9391 102.271 43.6348 105.562 43.6348C107.429 43.6348 108.999 44.3694 109.878 45.8147L108.766 46.5694C108.011 45.4574 106.839 44.9355 105.558 44.9355C103.15 44.9355 101.387 46.6537 101.387 49.2311C101.387 51.8085 103.15 53.5267 105.558 53.5267C106.835 53.5267 108.011 53.0249 108.766 51.9129L109.878 52.6676C108.999 54.0928 107.425 54.8475 105.562 54.8475C102.271 54.8475 99.8818 52.5231 99.8818 49.2311Z" fill="#003F87"/>
<path d="M111.493 49.2311C111.493 45.9632 113.881 43.6348 117.109 43.6348C120.337 43.6348 122.705 45.9592 122.705 49.2311C122.705 52.503 120.337 54.8475 117.109 54.8475C113.881 54.8475 111.493 52.499 111.493 49.2311ZM121.196 49.2311C121.196 46.6537 119.458 44.9355 117.109 44.9355C114.761 44.9355 113.002 46.6537 113.002 49.2311C113.002 51.8085 114.765 53.5267 117.109 53.5267C119.454 53.5267 121.196 51.8085 121.196 49.2311Z" fill="#003F87"/>
<path d="M143.938 48.3519V54.7432H142.449V48.4964C142.449 46.172 141.277 44.9756 139.285 44.9756C137.021 44.9756 135.596 46.441 135.596 48.9581V54.7432H134.107V48.4964C134.107 46.172 132.934 44.9756 130.923 44.9756C128.679 44.9756 127.234 46.441 127.234 48.9581V54.7432H125.744V43.7191H127.169V45.7304C127.944 44.4096 129.369 43.6348 131.216 43.6348C133.063 43.6348 134.464 44.4096 135.134 45.9592C135.929 44.534 137.503 43.6348 139.494 43.6348C142.176 43.6348 143.938 45.1844 143.938 48.3479V48.3519Z" fill="#003F87"/>
<path d="M166.179 48.3519V54.7432H164.69V48.4964C164.69 46.172 163.517 44.9756 161.526 44.9756C159.262 44.9756 157.837 46.441 157.837 48.9581V54.7432H156.347V48.4964C156.347 46.172 155.175 44.9756 153.164 44.9756C150.92 44.9756 149.474 46.441 149.474 48.9581V54.7432H147.985V43.7191H149.41V45.7304C150.185 44.4096 151.61 43.6348 153.457 43.6348C155.303 43.6348 156.705 44.4096 157.375 45.9592C158.17 44.534 159.744 43.6348 161.735 43.6348C164.417 43.6348 166.179 45.1844 166.179 48.3479V48.3519Z" fill="#003F87"/>
<path d="M179.869 49.6928H170.648C170.816 51.9972 172.575 53.5267 174.987 53.5267C176.328 53.5267 177.525 53.045 178.36 52.0815L179.199 53.045C178.215 54.2172 176.682 54.8475 174.943 54.8475C171.507 54.8475 169.158 52.499 169.158 49.2311C169.158 45.9632 171.443 43.6348 174.542 43.6348C177.641 43.6348 179.885 45.9191 179.885 49.2311C179.885 49.3556 179.865 49.5242 179.865 49.6928H179.869ZM170.648 48.5807H178.464C178.275 46.4209 176.702 44.9154 174.546 44.9154C172.39 44.9154 170.836 46.4249 170.648 48.5807Z" fill="#003F87"/>
<path d="M188.481 43.6348V45.08C188.356 45.08 188.228 45.0599 188.123 45.0599C185.819 45.0599 184.414 46.5253 184.414 49.1267V54.7432H182.924V43.7191H184.349V45.8789C185.04 44.4136 186.445 43.6388 188.477 43.6388L188.481 43.6348Z" fill="#003F87"/>
<path d="M189.95 49.2311C189.95 45.9391 192.338 43.6348 195.63 43.6348C197.497 43.6348 199.067 44.3694 199.946 45.8147L198.834 46.5694C198.079 45.4574 196.907 44.9355 195.626 44.9355C193.218 44.9355 191.455 46.6537 191.455 49.2311C191.455 51.8085 193.218 53.5267 195.626 53.5267C196.903 53.5267 198.079 53.0249 198.834 51.9129L199.946 52.6676C199.067 54.0928 197.493 54.8475 195.63 54.8475C192.338 54.8475 189.95 52.5231 189.95 49.2311Z" fill="#003F87"/>
<path d="M22.7255 19.9043H32.1517V33.5138C28.2415 36.1795 22.862 37.6047 18.1287 37.6047C7.73896 37.6047 0.151367 30.6634 0.151367 20.7755C0.151367 10.8875 7.73896 3.94629 18.3616 3.94629C24.7087 3.94629 29.8112 6.15432 33.0751 10.1529L26.1339 16.2671C24.1105 13.9226 21.766 12.7262 18.9156 12.7262C14.1342 12.7262 11.0992 15.8054 11.0992 20.7755C11.0992 25.7456 14.1342 28.8207 18.7791 28.8207C20.112 28.8207 21.4006 28.5919 22.7335 28.0379V19.9003L22.7255 19.9043Z" fill="#003F87"/>
<path d="M54.5089 11.2607V20.4582C53.5896 20.3217 52.9432 20.2735 52.2086 20.2735C49.0812 20.2735 46.8732 21.6987 46.8732 25.7013V36.8739H36.4834V11.7224H46.3714V14.4363C48.21 12.3206 51.0162 11.2648 54.5089 11.2648V11.2607Z" fill="#003F87"/>
<path d="M55.894 24.2721C55.894 16.6403 62.0083 11.2607 70.5152 11.2607C79.0221 11.2607 85.1364 16.6403 85.1364 24.2721C85.1364 31.9038 79.0663 37.3315 70.5152 37.3315C61.9641 37.3315 55.894 31.9038 55.894 24.2721ZM74.6101 24.2721C74.6101 21.0082 72.8156 19.3502 70.5192 19.3502C68.2229 19.3502 66.4284 21.0042 66.4284 24.2721C66.4284 27.5399 68.2229 29.2381 70.5192 29.2381C72.8156 29.2381 74.6101 27.5359 74.6101 24.2721Z" fill="#003F87"/>
<path d="M130.622 11.7188L121.882 36.8702H111.765L107.948 25.2359L103.993 36.8702H93.8764L85.1406 11.7188H94.9804L99.3041 25.0071L103.813 11.7188H112.641L117.009 25.1476L121.513 11.7188H130.618H130.622Z" fill="#003F87"/>
<path d="M132.657 11.7188H143.051V36.8702H132.657V11.7188Z" fill="#003F87"/>
<path d="M175.421 22.5257V36.8739H165.027V24.3202C165.027 21.1929 163.831 19.9965 161.948 19.9965C159.832 19.9965 158.042 21.3294 158.042 25.0549V36.8739H147.648V11.7224H157.532V14.2034C159.511 12.2283 162.177 11.2607 165.119 11.2607C170.913 11.2607 175.421 14.6169 175.421 22.5257Z" fill="#003F87"/>
<path d="M191.985 29.1459L190.327 30.9404V36.874H179.937V2.75391H190.327V19.0331L197.545 11.7225H209.822L199.428 22.6222L210.649 36.878H198.095L191.981 29.1539L191.985 29.1459Z" fill="#003F87"/>
<path d="M143.047 0V10.3938C139.313 10.3938 136.041 8.42664 134.211 5.4719C134.159 5.38759 134.11 5.3073 134.062 5.22299C133.211 3.76569 132.709 2.07956 132.661 0.285036C132.661 0.188686 132.661 0.0963512 132.661 0.00401546H143.055L143.047 0Z" fill="#FCC400"/>
<path d="M211.849 49.6928H202.628C202.796 51.9972 204.555 53.5267 206.967 53.5267C208.308 53.5267 209.505 53.045 210.34 52.0815L211.179 53.045C210.195 54.2172 208.662 54.8475 206.923 54.8475C203.487 54.8475 201.138 52.499 201.138 49.2311C201.138 45.9632 203.422 43.6348 206.522 43.6348C209.621 43.6348 211.865 45.9191 211.865 49.2311C211.865 49.3556 211.845 49.5242 211.845 49.6928H211.849ZM202.628 48.5807H210.444C210.255 46.4209 208.682 44.9154 206.526 44.9154C204.37 44.9154 202.816 46.4249 202.628 48.5807Z" fill="#003F87"/>
</svg>
