<svg width="103" height="103" viewBox="0 0 103 103" fill="none" xmlns="http://www.w3.org/2000/svg">
<path fill-rule="evenodd" clip-rule="evenodd" d="M51.5031 63.1064L51.5031 43.0183L28.9039 63.1064L51.5031 63.1064Z" fill="#FCC400"/>
<path fill-rule="evenodd" clip-rule="evenodd" d="M51.5008 63.1064L51.5008 43.0183L74.1 63.1064L51.5008 63.1064Z" fill="#003F87"/>
<path fill-rule="evenodd" clip-rule="evenodd" d="M28.899 62.792L28.899 82.8801L51.4982 62.792L28.899 62.792Z" fill="#003F87"/>
<path fill-rule="evenodd" clip-rule="evenodd" d="M74.0967 62.792L74.0967 82.8801L51.4976 62.792L74.0967 62.792Z" fill="#FCC400"/>
<path fill-rule="evenodd" clip-rule="evenodd" d="M28.899 37.3682L28.899 57.4563L51.4982 37.3682L28.899 37.3682Z" fill="#003F87"/>
<path fill-rule="evenodd" clip-rule="evenodd" d="M74.0967 37.3682L74.0967 57.4563L51.4976 37.3682L74.0967 37.3682Z" fill="#FCC400"/>
<path fill-rule="evenodd" clip-rule="evenodd" d="M51.5031 37.6826L51.5031 17.5945L28.9039 37.6826L51.5031 37.6826Z" fill="#FCC400"/>
<path fill-rule="evenodd" clip-rule="evenodd" d="M51.5008 37.6826L51.5008 17.5945L74.1 37.6826L51.5008 37.6826Z" fill="#003F87"/>
</svg>
