<svg width="103" height="103" viewBox="0 0 103 103" fill="none" xmlns="http://www.w3.org/2000/svg">
<path fill-rule="evenodd" clip-rule="evenodd" d="M36.093 30.3062H34.4694V39.8852C39.6615 42.2243 43.2759 47.4443 43.2759 53.5086C43.2759 59.5728 39.6615 64.7929 34.4694 67.1319V68.4422H69.1385V67.1256C63.9539 64.7834 60.346 59.5673 60.346 53.5086C60.346 47.4498 63.9539 42.2337 69.1385 39.8916V30.3062H67.5294C64.9336 36.4215 58.8733 40.7106 51.8112 40.7106C44.7491 40.7106 38.6887 36.4215 36.093 30.3062Z" fill="#FCC400"/>
<path d="M62.3971 28.1876C62.3971 34.0381 57.6543 38.7809 51.8038 38.7809C45.9533 38.7809 41.2104 34.0381 41.2104 28.1876C41.2104 22.337 45.9533 17.5942 51.8038 17.5942C57.6543 17.5942 62.3971 22.337 62.3971 28.1876Z" fill="#003F87"/>
<rect x="17.9049" y="72.6797" width="67.7974" height="12.712" fill="#003F87"/>
<rect x="32.7356" y="68.4424" width="38.1359" height="12.712" fill="#003F87"/>
<path d="M50.99 83.8916L50.99 73.9881L50.99 69.5014L53.9943 69.5014L53.9943 83.8916L50.99 83.8916Z" fill="#FFF8DF"/>
<path d="M50.99 73.9881L50.99 69.5014L46.4407 74.0065L48.7061 76.2719L50.99 73.9881Z" fill="#FFF8DF"/>
</svg>
